<svg height="1000pt" preserveAspectRatio="xMidYMid meet" viewBox="0 0 1000 1000" width="1000pt" xmlns="http://www.w3.org/2000/svg"><path d="m4767 9304c-1-1-37-5-79-9-43-3-88-8-100-10-13-3-39-6-58-9-19-2-53-9-75-15-22-5-53-13-70-15-16-3-39-8-50-10-20-4-138-42-165-53-8-3-19-5-24-4-4 1-19-5-32-14-13-8-24-13-24-11 0 8-161-50-234-84-38-18-113-59-167-91s-101-59-104-59-11-5-18-10c-12-11-102-76-147-107-14-10-45-37-69-60-24-24-45-43-47-43-6 0-159-158-174-178-7-12-27-26-42-31-18-7-28-17-28-30 0-12-9-26-20-33s-20-17-20-23c0-5-16-26-35-45s-35-39-35-45-8-18-17-26c-22-20-50-54-77-94-12-17-31-40-43-52-13-13-20-29-16-41 3-12-2-22-12-26-9-3-14-10-11-15s-10-28-29-52-35-51-36-59c0-8-13-37-29-65-34-58-101-193-105-209-1-6-7-22-12-36-6-14-9-28-6-32 2-5-1-8-6-8-6 0-11-13-11-28s-4-32-9-37c-5-6-17-48-26-95-8-47-19-98-24-115-5-16-13-50-16-75-4-25-9-52-10-60-2-8-8-58-15-110s-15-99-18-104-6-32-7-60c-3-54-22-171-32-196-6-14-10-39-17-105-2-16-4-32-6-35-1-3-1-9 0-15 1-5 1-37 0-70s-3-94-5-135c-1-41-5-86-9-100s-9-61-12-105-7-81-9-83c-1-1-13 1-26 7-91 36-204 39-271 7-44-21-90-65-82-77 3-5-2-12-11-15-9-4-14-13-11-21 3-7-1-16-9-19s-18-16-22-27c-8-26-7-21-17-77-5-25-11-49-14-55-4-5-7-16-9-24-1-8-6-17-11-20-6-3-12-19-13-36-2-16-8-33-12-36-11-8-18-191-8-204 5-5 11-29 15-53 3-24 10-51 15-60 41-85 80-183 83-212 2-14 7-31 12-38 11-19 35-121 36-154 0-16 5-28 10-28 6 0 10-20 10-43 0-24 3-47 8-51 4-4 7-11 7-14 1-20 29-111 41-135 9-15 13-31 10-35-3-5 6-27 20-51 13-24 24-49 24-56 0-8 6-20 14-27 18-19 46-73 46-91 0-8 12-28 27-44 16-17 43-48 60-70 18-22 35-42 38-45s8-16 11-29 6-28 7-34c2-5 7-17 12-25 20-31 37-66 41-84 5-28 108-126 133-127 12-1 24-3 29-4 4-2 17-6 30-10 16-5 22-14 20-29-2-13 4-25 16-31 13-6 25-30 33-65 8-30 30-104 49-163 20-60 33-111 30-114s3-27 14-54c12-33 14-49 7-49s-4-5 6-11c9-6 14-15 11-21-4-6 0-14 7-19 8-4 15-16 16-26s4-27 7-38c2-11 5-24 5-29 1-4 7-6 15-3 19 8 38-16 36-45-3-38-1-48 13-48 8 0 22-15 33-34 10-19 59-103 108-188 118-204 115-196 122-246 4-24 12-46 18-48 7-3 12-40 14-97 2-50 7-96 12-102 9-13 5-113-6-141-5-12-31-48-59-80-27-32-64-74-81-93-88-103-208-257-270-346-64-92-142-177-338-363-42-40-80-71-84-69-4 1-30-8-58-20-27-12-94-41-149-63-55-23-109-45-120-50-90-40-136-60-140-60-2 0-38-16-79-35-42-19-79-35-82-35-11 0-340-169-509-262-27-15-124-65-215-112-91-46-210-107-264-135-55-28-106-51-114-51s-26-7-40-14c-15-8-108-54-207-101-99-48-213-103-253-123l-72-36v-153-153h5000 5000v461c0 428-1 463-17 475-10 7-24 14-31 14-8 0-28 6-45 14-39 17-142 57-222 86-33 12-80 30-105 39-25 10-65 24-90 31-25 8-47 18-50 22s-15 9-25 11c-11 2-31 8-45 14s-50 19-80 28c-30 10-65 25-77 33-13 8-23 12-23 8 0-3-17 3-37 14-21 11-46 20-56 20-9 0-51 16-91 35-41 19-81 35-90 35s-29 9-44 20-37 22-49 24c-12 3-31 10-42 16-12 6-21 8-21 5s-22 6-50 20c-27 14-56 25-64 25s-27 7-43 15c-15 8-73 33-128 56-128 52-200 87-300 143-44 25-98 54-121 66-23 11-50 29-60 38s-32 24-47 32c-26 13-50 44-159 203-18 27-38 54-43 60-6 7-26 32-45 57-81 105-304 332-350 356-19 10-44 26-55 36-11 9-31 22-45 28s-54 26-90 45c-54 28-65 38-66 62-6 82-16 329-18 478-3 190-8 165 92 430 42 112 63 180 67 220 1 11 16 84 21 100 2 6 16 75 32 155 32 154 53 209 80 211 9 1 31 2 49 3 18 0 38 7 44 14 7 6 18 12 23 12 27 1 114 106 130 158 4 12 11 22 16 22s12 15 15 33c4 17 12 38 18 46 6 7 12 20 13 29 2 8 7 18 11 21 15 10 52 80 57 105 2 13 11 35 20 48 8 12 18 43 21 68 4 25 9 52 12 60s7 26 9 40c7 52 13 86 24 120 6 19 13 64 16 100s9 79 14 95c5 17 17 66 26 110s19 84 22 90c4 5 7 24 7 40 1 17 7 48 13 70s11 42 10 45 5 16 12 30c8 14 15 34 16 45 2 27 13 80 26 135 17 69 19 363 4 438-8 34-11 62-7 62 3 0 2 4-4 8-14 10-35 49-35 66 0 23-90 67-146 73-41 4-66-1-119-22-37-15-75-34-84-42-18-16-90-63-96-63-2 0-4 35-4 78 0 68-8 132-24 197-16 63-30 123-32 140-1 11-6 29-10 40-30 76-57 151-81 220-14 44-31 88-36 98s-11 29-14 41c-2 13-24 83-50 157-25 74-47 142-49 151-5 25-74 228-87 258-6 14-17 37-25 52-7 15-14 30-13 33 0 3-10 29-23 58-13 28-30 69-38 90-7 20-16 37-20 37s-12 15-20 33c-7 17-16 34-19 37-4 3-25 32-47 65-66 97-216 266-385 435-38 37-68 75-68 86 0 15-2 16-9 5-10-16-48 10-121 85-25 25-84 75-132 111s-85 69-83 74c3 4 1 10-5 14-5 3-10 1-10-5s-26 6-57 26c-120 77-508 262-563 269-3 0-9 3-15 7-18 10-284 75-345 83-8 1-26 5-40 8-54 13-303 29-313 21z" transform="matrix(.1 0 0 -.1 0 1000)"/></svg>