<?xml version="1.0" standalone="no"?>
<!DOCTYPE svg PUBLIC "-//W3C//DTD SVG 20010904//EN"
 "http://www.w3.org/TR/2001/REC-SVG-20010904/DTD/svg10.dtd">
<svg version="1.0" xmlns="http://www.w3.org/2000/svg"
 width="953.000000pt" height="953.000000pt" viewBox="0 0 953.000000 953.000000"
 preserveAspectRatio="xMidYMid meet">
<metadata>
Created by potrace 1.11, written by Peter Selinger 2001-2013
</metadata>
<g transform="translate(0.000000,953.000000) scale(0.100000,-0.100000)"
fill="#000000" stroke="none">
<path d="M4996 9193 c-4 -4 -40 -8 -79 -9 -154 -1 -387 -28 -387 -45 0 -4 -21
-9 -47 -12 -50 -5 -142 -24 -253 -52 -36 -9 -81 -20 -100 -25 -19 -4 -66 -18
-105 -30 -38 -12 -115 -33 -170 -46 -55 -14 -129 -36 -165 -49 -179 -64 -332
-128 -381 -157 -30 -18 -75 -41 -99 -52 -190 -78 -277 -128 -400 -228 -14 -11
-44 -29 -67 -39 -23 -11 -45 -24 -48 -30 -4 -5 -24 -17 -46 -26 -21 -8 -39
-18 -39 -22 0 -4 -17 -15 -37 -24 -42 -19 -82 -51 -169 -135 -32 -31 -68 -62
-79 -68 -11 -6 -31 -16 -45 -24 -14 -7 -32 -17 -40 -21 -8 -5 -31 -17 -50 -27
-20 -10 -62 -34 -95 -54 -33 -20 -77 -42 -97 -49 -32 -11 -35 -14 -20 -25 14
-10 11 -14 -24 -32 -21 -11 -49 -31 -60 -44 -12 -12 -47 -43 -78 -68 -32 -24
-79 -71 -106 -105 -86 -107 -94 -117 -132 -160 -21 -23 -38 -45 -38 -49 0 -3
-15 -28 -33 -54 -63 -91 -88 -143 -102 -215 -18 -88 -38 -161 -58 -207 -17
-40 -16 -137 3 -210 6 -25 16 -70 22 -100 6 -30 18 -60 27 -67 21 -16 51 -16
51 0 0 7 9 23 20 35 24 25 25 33 5 26 -18 -7 -18 -8 -2 39 8 20 22 43 32 51
16 12 23 11 51 -5 36 -20 44 -16 44 18 0 25 27 32 47 12 14 -14 36 -1 29 17
-3 8 1 14 9 14 8 0 17 11 21 24 3 13 15 27 26 29 13 4 19 11 15 20 -4 10 2 17
18 21 29 7 103 89 168 186 28 41 54 77 59 78 4 2 8 10 8 17 0 7 26 39 58 71
65 66 132 148 132 162 0 5 9 17 20 27 11 10 20 23 20 30 0 17 43 65 71 79 13
6 25 17 25 24 1 7 2 17 3 22 0 6 6 9 13 8 6 -2 12 8 12 22 1 21 6 25 34 25 26
-1 31 2 26 17 -4 14 -1 16 12 11 13 -5 16 -3 11 10 -5 12 6 22 43 39 28 13 50
29 50 35 0 7 5 13 10 13 6 0 10 -6 10 -14 0 -8 4 -17 9 -21 6 -3 8 8 6 26 -4
25 -1 30 12 25 9 -4 24 1 33 9 23 21 96 26 92 7 -2 -9 7 -6 24 7 21 17 29 19
35 9 5 -8 -1 -17 -17 -26 -44 -23 -17 -26 31 -3 24 11 57 21 72 21 16 0 41 7
57 15 33 17 62 19 71 5 4 -6 26 -8 56 -4 34 5 49 3 49 -5 0 -6 -7 -14 -15 -17
-8 -4 -15 -11 -15 -16 0 -6 6 -5 15 2 10 9 15 9 15 1 0 -6 7 -11 15 -11 8 0
15 -7 15 -15 0 -17 16 -20 25 -6 3 6 19 16 35 25 28 13 31 13 40 -5 8 -14 7
-17 -3 -14 -8 4 -13 -2 -13 -15 0 -23 7 -25 24 -8 9 9 12 8 12 -4 0 -9 -10
-18 -22 -21 -12 -4 -19 -9 -16 -12 3 -4 15 -2 26 4 12 6 29 11 39 11 16 -1 15
-3 -6 -20 -26 -22 -21 -27 8 -8 15 9 29 9 63 -1 28 -9 38 -16 28 -20 -31 -12
-60 -36 -60 -48 0 -7 -5 -13 -11 -13 -5 0 -8 -4 -5 -8 3 -5 -4 -15 -15 -22
-26 -19 -24 -34 3 -27 12 4 28 1 35 -5 10 -8 13 -7 13 5 0 8 13 17 30 21 17 3
43 9 58 12 38 8 40 -21 3 -35 -14 -5 -36 -18 -48 -30 -12 -11 -40 -30 -61 -41
-22 -12 -42 -30 -45 -40 -5 -19 -4 -19 23 -4 26 16 28 16 49 -5 11 -11 26 -21
31 -21 7 0 7 -6 0 -20 -11 -20 -4 -24 38 -23 16 1 15 -12 -3 -31 -25 -25 -17
-29 14 -7 27 20 30 20 34 4 4 -17 5 -17 6 0 0 9 5 17 10 17 5 0 7 -10 3 -22
-5 -23 -5 -23 16 -4 14 12 22 15 22 7 0 -7 -10 -22 -22 -33 -19 -16 -20 -19
-5 -14 12 4 17 2 14 -6 -2 -7 -18 -12 -36 -12 -17 1 -31 -2 -31 -8 0 -5 4 -7
9 -3 5 3 12 1 16 -5 4 -6 10 -8 15 -5 13 8 20 -23 12 -48 -6 -15 -2 -33 10
-57 12 -23 17 -27 14 -12 -2 12 0 22 5 22 12 0 29 -45 35 -89 3 -19 10 -41 16
-48 15 -18 19 -65 7 -79 -7 -8 -6 -14 1 -19 5 -3 10 -15 10 -26 0 -10 7 -19
15 -19 20 0 37 -34 24 -47 -7 -7 -7 -18 3 -34 31 -57 59 -40 34 21 -18 46 -20
60 -7 60 5 0 9 -11 9 -24 0 -14 9 -37 20 -53 11 -16 22 -43 25 -62 3 -18 8
-35 11 -39 14 -13 15 9 4 57 -9 41 -9 54 1 64 8 8 11 8 9 1 -2 -6 7 -20 19
-30 15 -12 25 -34 28 -62 3 -24 12 -53 19 -65 8 -12 13 -42 12 -67 -5 -102 -5
-102 -24 -96 -15 5 -18 0 -18 -26 0 -18 -4 -46 -8 -62 -7 -28 -6 -29 23 -23
18 4 31 2 31 -3 0 -6 5 -10 11 -10 5 0 8 4 5 9 -3 5 1 27 8 49 11 31 12 42 3
46 -9 3 -8 7 2 14 8 6 10 15 6 22 -5 8 -2 18 6 24 8 6 20 22 26 36 9 18 12 20
12 8 1 -10 8 -18 16 -18 9 0 12 -6 9 -15 -4 -10 0 -15 11 -15 9 0 14 -4 10 -9
-3 -6 4 -15 15 -21 11 -6 20 -16 21 -23 1 -22 44 -102 53 -97 4 3 15 -15 23
-40 8 -25 20 -49 27 -53 7 -6 5 -7 -6 -4 -25 9 -29 -27 -4 -44 11 -7 24 -12
28 -11 4 1 6 -15 4 -36 -2 -20 1 -47 7 -58 6 -14 5 -29 -2 -43 -8 -15 -9 -21
-1 -21 6 0 8 -5 4 -11 -9 -15 -22 1 -27 36 -4 28 -5 29 -12 7 -6 -17 -12 -21
-29 -16 -21 7 -21 6 -3 -14 27 -29 34 -137 12 -162 -11 -12 -13 -20 -6 -25 6
-3 11 -1 11 4 0 15 18 14 23 -1 2 -7 3 -5 1 5 -3 23 22 72 30 59 3 -6 3 -18 0
-27 -4 -10 -2 -15 6 -13 7 2 14 -9 15 -26 5 -40 15 -46 15 -8 0 17 -4 34 -10
37 -5 3 -10 11 -10 16 0 6 7 3 16 -5 8 -9 31 -16 50 -16 20 0 34 -5 34 -12 0
-7 5 -5 11 5 8 13 7 27 -1 47 -8 20 -9 34 -1 47 9 16 10 14 11 -12 l1 -30 18
22 19 23 -5 -42 c-4 -29 -3 -39 5 -34 7 4 12 3 12 -2 0 -6 -7 -13 -16 -16 -14
-6 -13 -11 12 -35 20 -20 33 -26 41 -20 8 7 13 1 18 -21 8 -36 -3 -56 -12 -22
-8 31 -20 19 -28 -30 -6 -33 -9 -38 -17 -25 -5 10 -6 22 -3 27 9 14 -5 80 -17
80 -6 0 -7 -7 -4 -16 3 -8 2 -12 -4 -9 -6 3 -10 13 -10 21 0 8 -4 14 -10 14
-5 0 -10 -7 -10 -15 0 -8 -4 -15 -10 -15 -5 0 -10 -11 -10 -25 0 -14 -4 -25
-10 -25 -5 0 -10 -7 -10 -15 0 -8 5 -15 10 -15 6 0 10 -6 10 -13 0 -15 -36
-57 -50 -57 -12 0 -4 80 9 93 14 14 14 57 1 57 -5 0 -10 -6 -10 -13 0 -26 -49
-115 -84 -153 -42 -45 -45 -57 -14 -52 15 2 24 13 30 36 5 17 13 32 18 32 13
0 13 -47 0 -55 -5 -3 -10 -22 -10 -41 0 -34 19 -49 22 -16 0 9 4 -3 7 -28 4
-28 11 -44 19 -43 14 3 16 -23 2 -32 -5 -3 -10 -13 -10 -21 0 -9 -8 -23 -17
-32 -16 -16 -16 -16 -11 0 7 18 -16 45 -26 30 -8 -13 4 -72 15 -72 5 0 9 5 9
10 0 6 4 10 9 10 5 0 11 -18 15 -40 6 -38 18 -51 31 -31 3 5 1 12 -4 15 -10 7
-4 70 9 95 5 9 9 2 13 -19 4 -17 2 -40 -3 -50 -7 -13 -6 -20 2 -22 7 -3 12
-26 12 -56 1 -29 4 -52 7 -52 4 0 9 -14 13 -31 3 -17 10 -28 16 -24 5 3 10 1
10 -4 0 -6 -4 -11 -10 -11 -5 0 -7 -7 -4 -15 7 -18 -3 -65 -15 -65 -4 0 -7 16
-6 35 2 19 -1 35 -6 35 -5 0 -9 -22 -9 -50 0 -27 -4 -50 -10 -50 -5 0 -10 7
-10 15 0 8 -9 15 -20 15 -23 0 -27 -25 -5 -34 16 -6 15 -33 -4 -111 -6 -25 -7
-41 -1 -43 6 -2 10 -11 10 -20 0 -13 -2 -14 -9 -4 -4 8 -12 14 -17 15 -5 1 -8
22 -7 47 l2 45 -13 -35 c-7 -19 -11 -38 -9 -42 6 -12 -12 -9 -24 3 -8 8 -13 8
-18 -1 -4 -7 1 -14 14 -17 25 -6 28 -23 4 -23 -14 0 -15 -2 -4 -9 8 -5 15 -29
16 -57 4 -73 4 -73 23 -92 9 -9 22 -28 29 -42 11 -24 12 -24 13 15 2 39 2 39
9 10 4 -17 15 -42 23 -55 22 -34 25 -71 8 -98 -18 -27 -27 -28 -33 -4 -3 11
-5 9 -6 -8 0 -14 6 -34 14 -44 8 -11 15 -31 15 -45 0 -21 -2 -23 -11 -11 -9
12 -9 11 -4 -5 20 -55 34 -134 30 -173 -3 -24 0 -53 6 -64 9 -16 7 -19 -8 -16
-21 4 -30 -32 -14 -59 9 -15 11 -12 11 17 1 19 4 29 7 22 2 -6 9 -10 14 -6 5
3 9 0 9 -5 0 -6 5 -11 10 -11 6 0 10 8 10 17 0 27 18 2 40 -55 12 -31 16 -53
10 -57 -6 -3 -10 -1 -10 4 0 6 -7 11 -16 11 -14 0 -14 -3 -4 -15 15 -18 7 -30
-15 -22 -8 4 -15 16 -15 27 0 11 -6 20 -14 20 -8 0 -17 8 -19 18 -4 14 -5 14
-6 1 0 -9 6 -22 14 -29 16 -13 20 -40 7 -40 -5 0 -14 -16 -20 -36 -10 -33 -9
-38 11 -54 15 -13 21 -27 19 -51 -2 -28 3 -37 25 -51 l28 -16 -35 1 c-28 2
-36 7 -41 27 -6 23 -7 22 -8 -7 -1 -20 4 -33 12 -33 9 0 8 -3 -2 -9 -10 -6
-12 -19 -7 -46 5 -25 4 -35 -3 -30 -17 10 -13 -26 4 -45 15 -16 14 -17 -10
-17 -14 0 -25 4 -25 9 0 5 5 6 10 3 6 -3 10 -2 10 3 0 5 -18 17 -40 27 -22 10
-42 26 -45 37 -4 10 -10 16 -15 13 -5 -3 -5 -16 0 -31 5 -13 9 -28 8 -32 -3
-10 31 -124 42 -144 14 -25 5 -22 -24 7 -14 14 -27 40 -29 58 -3 34 -25 81
-28 60 -3 -23 -4 -28 -12 -40 -5 -7 -5 -19 -2 -25 4 -7 -2 -2 -13 11 l-19 24
-6 -29 c-4 -21 1 -38 18 -60 22 -28 26 -66 11 -81 -9 -9 -26 8 -25 25 0 11 3
12 6 5 2 -7 9 -13 15 -13 6 0 5 6 -2 15 -17 21 -39 2 -36 -30 3 -27 55 -74 75
-67 7 2 4 -5 -8 -17 -26 -26 -27 -41 -2 -41 11 0 23 -5 26 -11 4 -6 13 -8 20
-5 7 2 15 -4 18 -15 5 -18 3 -18 -36 3 -23 13 -57 34 -74 47 -41 29 -46 7 -5
-25 27 -22 27 -23 7 -38 -11 -8 -28 -16 -39 -16 -13 0 -17 -5 -13 -20 7 -26
-5 -26 -23 0 -26 35 -41 25 -33 -22 3 -24 7 -55 7 -70 0 -17 5 -28 13 -28 7 0
24 -22 37 -50 13 -27 19 -48 13 -47 -12 2 -29 26 -46 64 -6 13 -14 23 -18 23
-5 0 -21 11 -36 25 -15 14 -27 21 -27 16 0 -7 -9 -7 -26 -1 -36 14 -38 13 -15
-16 11 -14 18 -31 15 -37 -2 -7 21 -23 57 -39 46 -20 63 -34 71 -56 12 -30 12
-30 28 -9 17 21 18 20 51 -49 18 -38 35 -73 38 -79 2 -5 -3 -4 -12 4 -10 7
-17 20 -17 27 0 8 -4 14 -9 14 -5 0 -18 15 -30 33 -11 17 -21 28 -21 23 0 -5
9 -24 21 -42 23 -37 10 -45 -21 -14 -11 11 -20 16 -20 11 0 -5 7 -17 16 -25 8
-9 13 -16 10 -16 -4 0 6 -19 20 -42 17 -27 23 -43 15 -46 -16 -5 -14 -27 4
-42 21 -18 11 -24 -14 -10 -12 6 -19 16 -15 21 7 12 -27 40 -40 32 -5 -4 -15
2 -23 12 -7 11 -13 14 -13 8 0 -6 11 -25 25 -41 29 -35 30 -38 9 -46 -10 -4
-15 -2 -12 6 6 18 -36 58 -62 58 -5 0 -7 6 -4 14 5 12 -43 52 -52 43 -2 -2 5
-16 17 -30 11 -15 32 -51 47 -79 15 -29 36 -66 47 -82 l19 -29 -21 11 c-12 7
-25 21 -28 32 -3 11 -10 20 -15 20 -12 0 -21 -44 -10 -48 6 -2 10 -12 10 -23
0 -10 5 -19 11 -19 5 0 7 -5 4 -10 -3 -6 -1 -10 6 -10 7 0 10 -2 7 -5 -12 -13
-59 9 -72 33 -8 16 -16 21 -20 14 -10 -16 27 -96 59 -127 14 -15 23 -31 19
-36 -3 -5 0 -8 7 -7 6 2 14 -3 17 -11 3 -8 0 -11 -7 -7 -17 11 -13 -3 11 -37
l21 -32 -38 35 -38 35 19 -30 18 -30 -27 24 c-14 13 -25 28 -24 34 1 5 -4 12
-10 14 -9 3 -11 -4 -6 -29 l6 -33 -37 44 c-20 24 -42 53 -48 65 -8 14 -13 17
-16 8 -2 -7 12 -40 33 -73 22 -36 34 -66 31 -77 -7 -22 22 -85 34 -77 5 3 16
-8 25 -25 15 -28 14 -30 -4 -30 -11 0 -23 11 -31 30 -15 37 -41 61 -33 30 4
-16 2 -19 -12 -13 -15 5 -17 2 -13 -13 3 -11 -1 -25 -8 -32 -10 -9 -19 -4 -44
26 l-32 37 18 -35 c9 -19 24 -46 33 -60 20 -31 42 -93 35 -100 -3 -3 -31 22
-61 55 -31 33 -53 53 -50 45 16 -42 34 -70 52 -79 18 -8 18 -10 2 -10 -14 -1
-16 -7 -11 -28 4 -16 13 -33 20 -39 17 -13 19 -48 3 -38 -16 10 -51 93 -44
104 3 6 -5 10 -20 10 -21 0 -24 -3 -17 -17 30 -58 44 -95 38 -100 -9 -9 -51
33 -93 94 -20 29 -38 53 -40 53 -7 0 27 -58 51 -87 17 -20 23 -37 20 -58 -3
-23 -2 -25 4 -11 8 19 9 18 25 -4 19 -28 12 -46 -11 -28 -14 11 -14 9 1 -15
15 -24 16 -28 3 -33 -8 -3 -20 -3 -26 1 -14 9 -13 28 3 19 6 -4 9 -3 4 1 -12
14 -47 16 -47 2 0 -6 -7 -3 -15 7 -8 11 -15 16 -15 10 0 -5 7 -18 15 -28 8
-10 12 -23 8 -29 -3 -5 -9 -3 -15 4 -6 10 -7 7 -3 -10 5 -16 4 -21 -4 -17 -6
4 -11 13 -11 20 0 7 -10 21 -21 32 -22 19 -22 19 -15 -6 6 -23 6 -23 -5 -5 -7
11 -21 28 -32 39 -16 15 -21 16 -28 5 -8 -13 -13 -5 -10 14 1 5 -2 6 -7 3 -5
-3 -9 -35 -10 -71 0 -60 2 -67 22 -76 29 -13 69 -92 54 -107 -6 -6 -4 -17 8
-31 25 -29 44 -26 44 7 l0 27 25 -29 c14 -16 25 -38 25 -48 0 -11 4 -17 9 -13
6 3 13 -11 17 -32 4 -21 11 -41 16 -44 5 -3 10 -17 12 -30 3 -29 15 -51 24
-45 4 2 8 -17 9 -42 l2 -47 -19 25 c-11 14 -20 32 -20 40 0 8 -18 49 -39 91
-22 42 -38 79 -35 82 3 2 -2 7 -11 11 -13 5 -14 2 -5 -15 6 -11 9 -25 7 -32
-2 -7 3 -21 13 -32 19 -22 44 -89 30 -80 -19 12 -28 -53 -16 -125 l6 -35 -14
30 c-9 17 -15 35 -16 41 0 6 -6 17 -14 23 -11 9 -14 4 -14 -29 -1 -54 -11 -69
-29 -39 -13 22 -13 19 -8 -32 5 -47 3 -56 -10 -56 -12 0 -14 7 -10 29 4 17 2
28 -4 28 -6 0 -11 7 -11 15 0 8 -4 15 -8 15 -16 0 -32 -25 -32 -51 0 -15 -5
-31 -11 -35 -8 -5 -10 4 -7 28 3 32 2 34 -14 24 -10 -6 -18 -21 -18 -33 0 -29
-14 -29 -33 -2 -15 20 -15 19 -27 -17 l-13 -37 -14 27 c-11 21 -18 25 -26 17
-8 -8 -8 -14 1 -23 15 -15 16 -31 0 -22 -8 5 -9 -2 -5 -24 4 -21 2 -36 -8 -46
-8 -8 -15 -19 -15 -24 0 -6 -7 -12 -15 -16 -8 -3 -15 -14 -15 -25 0 -11 -5
-23 -10 -26 -6 -4 -8 -15 -5 -25 4 -13 1 -17 -11 -16 -21 1 -27 -14 -14 -34 9
-13 11 -13 20 0 8 12 10 13 10 1 0 -8 3 -11 8 -7 8 9 9 14 11 57 1 35 21 30
21 -6 0 -13 5 -27 12 -31 7 -5 8 -3 3 6 -6 9 -4 11 4 5 9 -5 10 -10 2 -18 -6
-6 -11 -18 -11 -26 0 -8 -8 -23 -17 -33 -15 -17 -15 -19 1 -31 16 -12 16 -14
-3 -31 -12 -11 -21 -14 -21 -8 0 6 -11 22 -25 36 -14 14 -25 36 -25 49 0 30
-10 40 -27 26 -10 -9 -13 -2 -14 37 -1 50 -3 50 -13 2 -4 -16 -11 -28 -17 -28
-14 0 -9 60 7 80 16 21 25 78 14 85 -6 3 -10 17 -10 31 0 13 -4 24 -9 24 -4 0
-6 11 -3 25 3 16 0 25 -8 25 -7 0 -10 6 -7 12 19 48 19 48 2 42 -15 -6 -16 -4
-6 14 6 11 11 33 11 49 0 16 7 39 16 51 13 19 13 28 4 58 -7 19 -10 44 -7 55
3 10 1 22 -4 25 -5 3 -9 14 -9 24 0 33 -48 111 -92 151 -24 21 -39 41 -36 45
10 9 -11 46 -22 39 -5 -3 -24 3 -44 14 -30 17 -36 18 -47 5 -12 -14 -19 -19
-108 -67 -28 -15 -49 -32 -46 -37 10 -17 -29 -10 -51 9 -33 27 -65 98 -71 156
-5 43 -1 63 18 101 12 26 25 42 27 36 2 -8 19 1 43 23 22 20 53 38 69 42 16 3
35 12 41 19 6 8 18 14 25 14 8 0 14 5 14 10 0 6 6 10 14 10 8 0 16 3 19 8 2 4
2 0 -1 -8 -2 -8 -7 -26 -10 -40 -3 -14 -10 -28 -16 -32 -7 -5 -6 -13 6 -24 16
-17 18 -17 38 1 23 21 26 41 8 48 -7 2 6 10 29 17 23 7 40 17 37 21 -3 5 -1 9
3 9 5 0 32 22 61 49 35 33 52 56 52 73 0 19 5 24 22 23 12 -1 24 -7 26 -15 3
-7 11 2 18 20 16 38 18 54 4 45 -6 -3 -7 1 -4 9 3 9 2 16 -2 16 -5 0 -20 20
-33 45 -14 26 -27 41 -31 35 -4 -6 -11 -1 -17 13 -6 13 -29 38 -51 55 -40 32
-40 32 -46 9 -3 -12 -6 -33 -7 -47 -1 -23 -2 -22 -8 5 -3 17 -10 28 -14 25 -5
-3 -13 3 -18 13 -6 9 -15 15 -21 11 -6 -4 -8 1 -3 15 3 11 2 21 -3 21 -5 0
-12 -9 -15 -20 -7 -26 -27 -26 -34 0 -5 19 -6 20 -19 3 -13 -17 -13 -17 -14 0
0 23 -8 22 -31 -5 -18 -21 -20 -22 -30 -5 -7 13 -15 15 -28 7 -18 -9 -31 -4
-31 12 0 5 11 13 25 18 14 5 25 14 25 20 0 7 -6 8 -19 0 -13 -7 -28 -7 -46 0
-14 5 -43 10 -63 10 -33 1 -35 2 -19 14 25 19 21 30 -5 12 -29 -21 -55 -22
-39 -2 15 18 -1 30 -28 21 -14 -4 -23 2 -35 25 -14 29 -14 32 6 48 107 85 156
155 174 247 11 63 -37 175 -91 211 -14 9 -25 24 -25 34 0 19 -19 30 -51 30
-12 0 -16 -5 -13 -14 6 -17 -88 -76 -121 -76 -16 0 -17 -2 -5 -10 9 -6 15 -27
17 -59 1 -42 -2 -50 -20 -56 -22 -7 -22 -7 2 -14 l23 -6 -25 -14 c-14 -8 -27
-23 -29 -34 -5 -30 -49 -58 -99 -61 -24 -2 -83 -15 -130 -30 -65 -20 -93 -24
-111 -17 -18 7 -29 6 -37 -2 -9 -9 -16 -9 -30 0 -13 8 -37 9 -82 3 -35 -5 -70
-10 -78 -10 -7 0 -11 -6 -8 -14 6 -15 -16 -40 -26 -30 -3 3 -12 2 -19 -2 -7
-5 -17 -9 -23 -10 -5 0 -16 -2 -23 -2 -14 -2 -10 -28 11 -70 9 -19 8 -29 -4
-51 -15 -25 -14 -28 7 -44 28 -21 125 -47 177 -47 21 0 70 6 110 14 40 8 103
20 142 26 68 11 70 11 85 -11 8 -12 15 -36 16 -53 2 -72 18 -176 25 -176 5 0
10 10 10 23 1 22 15 -25 26 -91 5 -29 8 -33 29 -28 15 4 24 2 24 -5 0 -6 9 -9
20 -6 11 3 18 1 14 -4 -3 -5 2 -9 10 -9 9 0 16 5 16 11 0 5 5 7 11 4 5 -4 23
7 40 24 32 34 47 38 55 18 5 -15 64 -11 64 4 0 5 7 6 15 3 9 -4 23 3 34 15 22
25 31 27 31 6 0 -8 7 -15 16 -15 8 0 13 4 9 9 -3 5 -1 12 5 16 5 3 10 1 10 -4
0 -6 6 -11 13 -11 6 0 25 -7 41 -15 l29 -15 -7 32 c-6 30 -5 31 7 13 18 -26
26 -60 18 -72 -27 -39 -180 -100 -270 -107 -58 -5 -98 -16 -58 -16 22 0 22
-16 0 -30 -16 -9 -14 -13 20 -43 l38 -33 -64 -59 c-72 -68 -246 -221 -351
-309 -39 -33 -93 -82 -121 -109 -27 -27 -94 -78 -147 -113 -53 -36 -110 -80
-125 -98 -61 -72 -73 -87 -99 -125 -14 -22 -24 -47 -21 -55 7 -19 270 -194
422 -281 66 -38 152 -89 192 -114 39 -25 106 -68 150 -95 155 -98 299 -195
364 -248 85 -68 245 -236 285 -299 17 -26 48 -67 69 -90 32 -35 36 -46 32 -75
l-6 -34 2195 0 c1461 0 2193 3 2189 10 -3 6 1 10 10 10 9 0 13 -4 10 -10 -4
-7 350 -10 1054 -10 l1061 0 0 2971 c0 2824 -1 2970 -17 2965 -10 -3 -41 -10
-69 -15 -29 -6 -92 -21 -140 -34 -49 -14 -118 -30 -154 -36 -134 -25 -299 -64
-410 -98 -63 -19 -171 -50 -240 -68 -69 -17 -156 -42 -195 -55 -38 -13 -86
-23 -105 -24 -33 -1 -35 1 -32 29 1 17 3 44 2 62 0 18 5 35 10 38 6 3 10 16
10 29 0 12 5 27 11 33 14 14 21 131 8 155 -8 14 -7 24 3 35 7 9 11 17 10 17
-2 1 -1 17 2 36 12 72 14 185 4 197 -6 7 -11 36 -13 65 -1 29 -8 73 -14 98 -7
25 -15 58 -18 74 -3 17 -14 31 -25 34 -17 4 -17 6 -3 22 14 15 13 19 -10 40
-15 14 -25 35 -25 51 0 15 -5 31 -10 34 -8 5 -7 12 1 22 10 12 10 16 -2 24 -8
5 -17 9 -22 9 -4 0 -12 11 -17 25 -5 14 -14 25 -20 25 -5 0 -10 10 -10 23 0
12 -7 33 -16 45 -9 14 -13 33 -10 46 4 15 -4 38 -24 70 -17 26 -30 58 -30 71
0 14 -9 30 -20 37 -11 7 -20 20 -20 28 0 8 -11 31 -24 50 -15 23 -23 49 -23
76 0 39 -27 104 -81 194 -30 50 -52 100 -52 119 0 9 -9 22 -20 29 -11 7 -20
20 -20 30 -1 9 -15 26 -33 37 -22 14 -32 28 -32 45 0 17 -18 43 -56 80 -65 64
-135 124 -149 128 -6 2 -10 10 -10 17 0 8 -11 20 -24 27 -54 30 -106 69 -115
87 -6 10 -21 21 -34 25 -13 3 -29 17 -35 30 -6 14 -27 36 -46 48 -19 13 -41
33 -47 46 -7 12 -19 22 -26 22 -8 0 -11 5 -7 11 6 11 -101 119 -118 119 -4 0
-10 9 -13 20 -3 11 -13 20 -21 20 -7 0 -22 17 -31 38 -14 29 -24 38 -49 40
-34 3 -69 50 -60 80 7 20 -39 53 -61 45 -7 -3 -13 3 -13 12 0 9 -9 30 -20 45
-18 26 -25 28 -69 25 -55 -5 -74 5 -99 55 -13 26 -23 34 -39 33 -14 -2 -30 7
-43 24 -11 14 -23 23 -26 20 -3 -3 -19 7 -36 21 -16 15 -33 27 -36 27 -4 0
-24 10 -45 22 -38 23 -67 72 -67 114 0 21 -1 22 -20 4 -11 -10 -20 -31 -20
-46 0 -56 -31 -83 -45 -39 -10 30 -55 69 -73 62 -12 -4 -14 -1 -8 13 4 11 4
16 0 13 -7 -8 -43 34 -63 74 -8 15 -24 38 -35 50 -17 19 -21 20 -24 6 -5 -24
-73 -31 -122 -12 -44 18 -60 14 -41 -10 29 -35 -22 -21 -109 29 -16 9 -27 11
-31 3 -4 -7 -13 -7 -27 1 -27 14 -45 14 -36 0 11 -18 -43 -2 -76 23 -27 20
-68 19 -55 -1 6 -11 -64 -3 -80 9 -14 10 -99 28 -170 36 -33 4 -78 12 -100 19
-62 20 -100 26 -109 18z m-1857 -1334 c-24 -15 -45 -11 -24 5 11 8 24 12 28 9
5 -3 3 -9 -4 -14z m61 11 c-8 -5 -19 -10 -25 -10 -5 0 -3 5 5 10 8 5 20 10 25
10 6 0 3 -5 -5 -10z m-40 -24 c0 -2 -7 -9 -15 -16 -12 -10 -15 -10 -15 4 0 9
7 16 15 16 8 0 15 -2 15 -4z m220 -356 c-11 -21 -22 -25 -33 -13 -9 9 12 33
30 33 11 0 11 -4 3 -20z m109 -54 c-2 -2 -17 -6 -34 -10 -22 -5 -26 -4 -15 4
14 9 59 15 49 6z m-39 -30 c0 -11 -19 -15 -25 -6 -3 5 1 10 9 10 9 0 16 -2 16
-4z m-1723 -248 c-3 -7 -5 -2 -5 12 0 14 2 19 5 13 2 -7 2 -19 0 -25z m1836
-8 c3 -11 1 -20 -4 -20 -5 0 -9 9 -9 20 0 11 2 20 4 20 2 0 6 -9 9 -20z
m-1863 -51 c0 -6 -4 -7 -10 -4 -5 3 -10 11 -10 16 0 6 5 7 10 4 6 -3 10 -11
10 -16z m1940 -53 c0 -2 -7 -6 -15 -10 -8 -3 -15 -1 -15 4 0 6 7 10 15 10 8 0
15 -2 15 -4z m15 -36 c-3 -5 -11 -10 -16 -10 -6 0 -7 5 -4 10 3 6 11 10 16 10
6 0 7 -4 4 -10z m-35 -67 c-11 -17 -11 -17 -6 0 3 9 1 17 -4 17 -5 0 -7 7 -3
16 5 15 7 15 15 0 6 -10 5 -23 -2 -33z m83 -53 c3 -12 0 -20 -7 -20 -18 0 -25
10 -19 26 7 20 20 17 26 -6z m107 11 c0 -6 -5 -13 -10 -16 -6 -4 -8 -11 -5
-16 4 -5 1 -9 -4 -9 -12 0 -14 11 -5 34 7 17 24 22 24 7z m72 -13 c-7 -7 -12
-8 -12 -2 0 14 12 26 19 19 2 -3 -1 -11 -7 -17z m-82 -58 c0 -5 -4 -10 -10
-10 -5 0 -10 5 -10 10 0 6 5 10 10 10 6 0 10 -4 10 -10z m6 -46 c2 -45 4 -55
13 -50 11 7 31 -39 31 -74 0 -16 -4 -31 -10 -35 -5 -3 -7 -12 -4 -19 3 -8 -4
-16 -15 -19 -24 -6 -25 -2 -10 42 9 25 8 36 -5 56 -22 34 -33 129 -15 123 8
-3 14 -13 15 -24z m54 -34 c0 -5 -2 -10 -4 -10 -3 0 -8 5 -11 10 -3 6 -1 10 4
10 6 0 11 -4 11 -10z m43 -50 c3 -13 0 -20 -9 -20 -20 0 -18 -17 4 -29 9 -6
12 -11 6 -11 -22 0 -35 26 -25 53 5 14 7 28 3 33 -4 4 -2 4 4 1 7 -4 14 -16
17 -27z m97 -54 c0 -3 -4 -8 -10 -11 -5 -3 -10 -1 -10 4 0 6 5 11 10 11 6 0
10 -2 10 -4z m125 -36 c3 -5 1 -10 -4 -10 -6 0 -11 5 -11 10 0 6 2 10 4 10 3
0 8 -4 11 -10z m-100 -39 c0 -22 -3 -27 -12 -19 -9 7 -10 16 -2 29 13 25 14
24 14 -10z m-215 -11 c0 -5 -5 -10 -11 -10 -5 0 -7 5 -4 10 3 6 8 10 11 10 2
0 4 -4 4 -10z m320 -21 c0 -5 -4 -9 -8 -9 -5 0 -9 7 -9 15 0 8 4 12 9 9 4 -3
8 -9 8 -15z m-160 1 c0 -5 -5 -10 -11 -10 -5 0 -7 5 -4 10 3 6 8 10 11 10 2 0
4 -4 4 -10z m17 -30 c0 -25 -2 -27 -12 -13 -10 14 -5 36 11 43 0 0 1 -13 1
-30z m39 -14 c0 -14 -4 -22 -8 -20 -4 3 -8 14 -8 25 0 10 4 19 8 19 4 0 8 -11
8 -24z m147 -31 c-3 -9 -8 -14 -10 -11 -3 3 -2 9 2 15 9 16 15 13 8 -4z m117
-5 c0 -5 -4 -10 -9 -10 -6 0 -13 5 -16 10 -3 6 1 10 9 10 9 0 16 -4 16 -10z
m-79 -27 c-12 -20 -14 -14 -5 12 4 9 9 14 11 11 3 -2 0 -13 -6 -23z m164 7 c3
-5 1 -10 -4 -10 -6 0 -11 5 -11 10 0 6 2 10 4 10 3 0 8 -4 11 -10z m593 -58
c-9 -4 -47 38 -48 53 0 6 13 -3 29 -20 15 -16 24 -32 19 -33z m-768 -32 c0 -5
-4 -10 -10 -10 -5 0 -10 5 -10 10 0 6 5 10 10 10 6 0 10 -4 10 -10z m430 -42
c0 -4 -7 -8 -15 -8 -8 0 -15 4 -15 8 0 5 7 9 15 9 8 0 15 -4 15 -9z m-408 -24
c13 1 26 -3 30 -9 14 -19 8 -25 -12 -13 -17 11 -22 11 -29 0 -6 -9 -12 -8 -25
7 -10 11 -15 25 -11 32 6 8 10 8 16 -3 5 -9 19 -15 31 -14z m105 4 c-3 -8 -6
-5 -6 6 -1 11 2 17 5 13 3 -3 4 -12 1 -19z m363 -34 c0 -6 -7 -18 -16 -25 -14
-12 -16 -10 -13 16 3 20 0 29 -9 28 -6 -2 -12 7 -12 19 l0 21 25 -23 c14 -13
25 -29 25 -36z m-530 26 c0 -5 -8 -10 -17 -10 -15 0 -16 2 -3 10 19 12 20 12
20 0z m-53 -22 c-3 -8 -6 -5 -6 6 -1 11 2 17 5 13 3 -3 4 -12 1 -19z m1675 8
c78 -15 142 -39 153 -56 4 -6 10 -8 15 -5 5 3 14 -3 19 -13 6 -11 21 -19 35
-19 46 0 196 -118 202 -158 1 -8 -2 -13 -7 -9 -5 3 -9 10 -9 16 0 17 -45 55
-60 50 -9 -3 -11 1 -7 12 4 10 3 15 -3 11 -21 -13 -9 -35 28 -51 20 -9 31 -18
25 -21 -7 -3 -13 -11 -13 -18 0 -7 6 -15 13 -18 8 -3 6 -9 -8 -20 -19 -15 -19
-16 -1 -35 10 -12 15 -26 11 -33 -5 -7 1 -19 14 -28 15 -12 24 -32 28 -62 3
-24 14 -62 24 -85 10 -22 19 -48 19 -57 0 -9 9 -31 20 -49 13 -22 20 -51 20
-84 0 -28 9 -79 20 -113 11 -36 20 -95 21 -142 2 -43 6 -79 11 -79 4 0 8 -10
8 -22 0 -12 6 -29 14 -37 18 -21 26 -62 16 -86 -4 -11 -4 -30 1 -41 4 -12 5
-25 1 -29 -4 -3 -7 -25 -9 -48 -2 -51 -12 -175 -15 -199 -1 -10 -5 -18 -9 -18
-3 0 -9 -26 -12 -57 -3 -32 -11 -59 -17 -61 -5 -2 -10 -12 -10 -22 0 -10 -7
-20 -15 -24 -8 -3 -15 -14 -15 -25 0 -11 -11 -32 -24 -46 -13 -14 -27 -42 -31
-61 -4 -22 -11 -34 -19 -31 -6 3 -30 -15 -51 -39 -22 -24 -55 -59 -72 -77 -18
-19 -33 -37 -33 -41 0 -4 -9 -19 -20 -33 -11 -14 -20 -34 -20 -44 0 -11 -4
-19 -10 -19 -5 0 -10 -7 -10 -16 0 -28 -73 -162 -91 -167 -13 -3 -16 -11 -12
-26 3 -13 1 -21 -5 -19 -6 2 -27 -12 -47 -31 -31 -28 -44 -34 -89 -36 -30 -1
-59 -5 -64 -9 -28 -17 -148 78 -221 175 -9 11 -27 35 -41 52 l-25 31 -6 -79
c-6 -69 -6 -64 -5 40 1 120 1 120 38 180 66 108 99 148 111 136 18 -18 24 -13
31 22 3 17 34 75 68 127 72 109 134 161 218 186 73 21 126 49 134 71 4 10 -1
27 -14 43 -11 14 -23 32 -26 42 -3 9 -15 19 -26 21 -11 3 -17 10 -14 15 5 9
-48 27 -68 23 -5 -1 -6 4 -3 12 4 10 -1 13 -19 9 -13 -2 -31 1 -39 8 -8 7 -30
20 -48 30 -38 21 -47 47 -17 52 27 4 27 22 0 26 -29 5 -25 20 16 59 31 29 35
38 27 56 -5 12 -9 34 -8 50 1 20 -4 27 -17 27 -21 0 -24 16 -4 23 9 4 12 14 9
26 -3 13 -1 21 7 21 7 0 10 7 6 15 -8 23 23 18 72 -10 47 -27 50 -27 25 1 -31
34 -67 50 -103 48 -184 -13 -225 -5 -257 54 -24 44 -22 55 28 107 21 22 45 49
53 60 12 17 16 17 30 5 15 -12 20 -10 39 8 19 20 20 25 9 54 -8 22 -8 35 -1
44 7 8 7 14 -1 19 -5 3 -10 17 -10 31 0 13 -5 24 -11 24 -6 0 -9 7 -5 15 3 9
0 15 -10 15 -9 0 -14 6 -11 13 2 6 -7 24 -20 39 -17 17 -26 39 -27 67 -2 34 2
43 26 61 15 11 28 16 28 11 0 -5 9 -7 21 -4 12 4 25 0 29 -7 7 -11 14 -11 33
-3 21 10 26 9 32 -5 4 -12 8 -13 13 -4 12 18 55 21 73 5 9 -8 28 -15 41 -17
34 -3 50 -16 44 -33 -5 -11 -1 -14 13 -10 14 3 26 -8 52 -50 19 -31 47 -68 63
-83 26 -26 28 -33 24 -80 -4 -42 -2 -52 13 -61 14 -7 19 -21 19 -49 0 -22 4
-40 8 -40 10 0 52 -85 52 -104 0 -8 7 -27 15 -42 8 -16 15 -41 15 -56 0 -15 5
-30 11 -33 5 -4 8 -12 6 -18 -2 -7 0 -25 5 -42 5 -16 8 -66 7 -110 -1 -44 -2
-110 -2 -147 0 -38 -3 -68 -7 -68 -4 0 -7 -29 -6 -65 0 -36 -2 -65 -6 -65 -5
0 -8 -7 -8 -15 0 -8 -4 -15 -9 -15 -15 0 -21 -43 -8 -58 10 -13 8 -14 -11 -8
-16 6 -21 4 -17 -7 6 -13 -41 -81 -72 -104 -9 -7 -13 -16 -9 -20 10 -10 91 21
89 33 -1 6 14 17 33 24 81 32 126 167 127 385 1 162 -16 242 -110 525 -54 162
-71 189 -216 343 -120 127 -165 158 -272 188 -168 46 -212 49 -269 18 -58 -31
-118 -112 -139 -188 -10 -35 -26 -243 -18 -236 12 13 109 -187 123 -257 2 -7
9 -18 16 -23 8 -6 12 -18 11 -26 -2 -7 2 -24 9 -36 7 -12 11 -28 10 -35 -2 -7
3 -12 11 -10 11 2 12 0 3 -11 -9 -11 -4 -20 24 -45 36 -32 36 -44 0 -17 -38
28 -37 15 0 -20 21 -20 44 -33 51 -31 7 3 13 1 13 -4 0 -6 9 -10 20 -10 12 0
30 -9 42 -20 12 -10 25 -17 29 -14 4 2 11 0 14 -6 4 -7 11 -8 18 -1 9 7 12 1
12 -21 0 -24 -5 -32 -22 -34 -12 -2 -26 -5 -30 -5 -8 -2 -29 5 -68 21 -48 21
-125 38 -130 29 -4 -5 -3 -19 1 -32 11 -32 6 -80 -13 -124 -16 -40 -22 -150
-10 -195 6 -22 1 -33 -28 -65 -19 -21 -35 -44 -35 -50 0 -7 -6 -13 -13 -13
-18 0 -25 -64 -14 -130 3 -14 5 -30 6 -37 2 -23 52 -63 77 -63 l26 0 -37 -65
c-20 -37 -33 -70 -29 -78 4 -6 -12 7 -37 31 -24 24 -56 51 -71 60 -16 9 -28
24 -28 34 0 10 -5 15 -12 13 -8 -3 -14 4 -14 20 -3 42 -13 58 -34 52 -16 -4
-18 -2 -10 13 13 24 13 30 0 30 -5 0 -10 -5 -10 -11 0 -7 -7 -17 -16 -24 -24
-17 -11 -67 14 -58 13 5 12 1 -5 -16 -12 -11 -27 -21 -33 -21 -15 0 -12 -17 5
-24 23 -8 18 -28 -5 -21 -14 4 -20 2 -18 -7 2 -7 -4 -13 -12 -13 -8 0 -20 -6
-26 -14 -9 -12 -12 -9 -18 12 -5 23 -20 32 -47 29 -3 -1 -4 9 -2 22 3 13 -1
27 -8 31 -9 6 -11 3 -6 -8 3 -9 2 -19 -3 -22 -6 -4 -10 4 -10 15 0 16 -5 20
-15 16 -8 -3 -15 -1 -15 5 0 6 -4 7 -10 4 -5 -3 -10 -1 -10 4 0 6 6 11 13 11
6 1 1 10 -13 21 l-25 21 -6 -23 -5 -24 -9 25 c-5 16 -4 25 4 28 14 5 14 25 -1
40 -6 6 -12 24 -14 39 -8 76 -16 112 -27 116 -10 4 -13 43 -12 150 0 80 4 149
7 153 4 3 0 13 -8 22 -9 8 -13 23 -11 33 3 11 1 19 -4 19 -5 0 -8 12 -8 28 2
23 2 24 6 5 2 -13 9 -23 14 -23 15 0 10 42 -8 55 -10 8 -13 17 -7 26 4 8 7 24
6 36 -2 11 2 24 8 28 6 4 8 15 5 26 -4 11 -2 19 4 19 6 0 11 16 11 35 0 20 9
54 21 76 18 36 22 39 32 24 14 -18 12 -23 63 138 21 67 32 87 46 87 11 0 18 7
18 19 0 10 7 24 16 32 13 10 17 10 25 -2 7 -11 9 -8 10 11 1 14 1 30 0 37 -1
7 7 9 20 6 17 -5 21 -3 16 9 -3 9 0 24 7 34 8 11 25 52 39 91 84 233 206 365
396 430 77 26 150 29 253 9z m-1462 -6 c0 -5 -5 -10 -11 -10 -5 0 -7 5 -4 10
3 6 8 10 11 10 2 0 4 -4 4 -10z m-179 -53 c-1 -12 -15 -9 -19 4 -3 6 1 10 8 8
6 -3 11 -8 11 -12z m101 -20 c9 -7 18 -24 20 -37 2 -14 9 -24 15 -23 6 1 9 -6
6 -16 -3 -11 5 -27 19 -41 21 -20 22 -21 3 -18 -24 4 -45 22 -45 38 0 6 -7 18
-15 27 -10 9 -13 23 -9 35 5 17 3 19 -14 14 -17 -6 -19 -3 -15 14 6 23 12 24
35 7z m248 -7 c0 -5 -2 -10 -4 -10 -3 0 -8 5 -11 10 -3 6 -1 10 4 10 6 0 11
-4 11 -10z m345 -10 c3 -6 -1 -7 -9 -4 -18 7 -21 14 -7 14 6 0 13 -4 16 -10z
m-515 -30 c0 -5 -2 -10 -4 -10 -3 0 -8 5 -11 10 -3 6 -1 10 4 10 6 0 11 -4 11
-10z m-116 -55 c3 -8 1 -15 -4 -15 -6 0 -10 7 -10 15 0 8 2 15 4 15 2 0 6 -7
10 -15z m116 5 c0 -5 -2 -10 -4 -10 -3 0 -8 5 -11 10 -3 6 -1 10 4 10 6 0 11
-4 11 -10z m39 -44 c-3 -3 -11 5 -18 17 -13 21 -12 21 5 5 10 -10 16 -20 13
-22z m-239 -41 c11 -13 10 -14 -4 -9 -9 3 -16 10 -16 15 0 13 6 11 20 -6z
m248 -7 c-2 -13 -7 -21 -13 -19 -5 1 -9 7 -7 12 1 5 -3 9 -9 9 -5 0 -7 5 -4
10 12 20 36 11 33 -12z m-210 -15 c1 -22 0 -24 -8 -13 -12 18 -13 40 -2 40 4
0 9 -12 10 -27z m42 1 c0 -16 -16 -19 -25 -4 -8 13 4 32 16 25 5 -4 9 -13 9
-21z m285 -53 c3 -5 1 -12 -5 -16 -5 -3 -10 1 -10 9 0 18 6 21 15 7z m85 0 c0
-5 3 -16 6 -24 3 -8 -2 -17 -10 -20 -12 -5 -16 1 -16 23 0 17 5 30 10 30 6 0
10 -4 10 -9z m-140 -46 c0 -8 -2 -15 -4 -15 -2 0 -6 7 -10 15 -3 8 -1 15 4 15
6 0 10 -7 10 -15z m147 -47 c-3 -8 -6 -5 -6 6 -1 11 2 17 5 13 3 -3 4 -12 1
-19z m-87 2 c0 -5 -5 -10 -11 -10 -5 0 -7 5 -4 10 3 6 8 10 11 10 2 0 4 -4 4
-10z m420 -16 c0 -8 5 -14 10 -14 6 0 10 -4 10 -10 0 -11 -30 -14 -31 -2 0 4
-2 17 -5 30 -2 14 0 21 6 17 5 -3 10 -13 10 -21z m-301 -26 c1 -5 -3 -8 -9 -8
-5 0 -10 12 -9 28 0 24 1 25 9 7 5 -11 9 -23 9 -27z m-291 -13 c-3 -3 -9 2
-12 12 -6 14 -5 15 5 6 7 -7 10 -15 7 -18z m602 -55 c0 -7 7 -10 15 -6 27 10
16 -12 -14 -27 -29 -14 -29 -14 -35 21 -3 19 -3 39 0 44 6 10 34 -16 34 -32z
m30 24 c0 -8 -4 -12 -10 -9 -5 3 -10 10 -10 16 0 5 5 9 10 9 6 0 10 -7 10 -16z
m-746 -60 c4 -15 4 -29 1 -32 -3 -3 -9 4 -12 17 -6 23 -7 23 -20 6 -13 -19
-18 -9 -7 19 9 25 31 19 38 -10z m806 0 c0 -14 -4 -23 -9 -20 -7 5 -8 23 -2
44 4 12 11 -3 11 -24z m-64 -81 c-11 -11 -17 4 -9 23 7 18 8 18 11 1 2 -10 1
-21 -2 -24z m-766 -55 c0 -19 -2 -20 -10 -8 -13 19 -13 30 0 30 6 0 10 -10 10
-22z m20 -118 c0 -5 -5 -10 -11 -10 -5 0 -7 5 -4 10 3 6 8 10 11 10 2 0 4 -4
4 -10z m31 -30 c-7 -4 -9 -15 -5 -26 5 -15 4 -16 -6 -8 -14 14 -4 58 12 48 7
-4 6 -9 -1 -14z m136 -2 c-3 -8 -6 -5 -6 6 -1 11 2 17 5 13 3 -3 4 -12 1 -19z
m-200 -470 c-3 -8 -6 -5 -6 6 -1 11 2 17 5 13 3 -3 4 -12 1 -19z m1520 -24
c-3 -3 -12 -4 -19 -1 -8 3 -5 6 6 6 11 1 17 -2 13 -5z m-86 -50 c-47 -53 -71
-118 -53 -136 17 -17 15 -41 -3 -34 -10 3 -15 -1 -15 -13 0 -26 -10 -32 -27
-15 -8 8 -18 12 -23 9 -4 -3 -11 15 -14 39 -8 50 8 98 51 154 22 29 30 33 58
29 17 -3 38 -1 46 4 25 15 22 10 -20 -37z m-1471 32 c0 -3 -4 -8 -10 -11 -5
-3 -10 -1 -10 4 0 6 5 11 10 11 6 0 10 -2 10 -4z m-26 -98 c4 -22 3 -38 -2
-38 -13 0 -21 35 -15 60 7 26 9 24 17 -22z m1720 7 c3 -8 1 -15 -4 -15 -6 0
-10 5 -10 10 0 18 -18 10 -23 -11 -4 -15 -2 -19 9 -15 8 3 14 1 14 -4 0 -6 -9
-10 -20 -10 -22 0 -25 12 -10 41 13 23 36 25 44 4z m-214 -70 c0 -14 -4 -25
-9 -25 -5 0 -11 11 -13 25 -4 17 -1 25 8 25 8 0 14 -11 14 -25z m180 -17 c0
-5 -4 -8 -10 -8 -5 0 -10 10 -10 23 0 18 2 19 10 7 5 -8 10 -18 10 -22z
m-1274 -185 c7 -18 9 -33 5 -33 -4 0 -13 17 -19 39 -12 38 -15 69 -5 41 3 -8
12 -30 19 -47z m-316 -10 c0 -19 -13 -53 -19 -53 -4 0 -6 14 -3 30 2 17 8 30
13 30 5 0 9 -3 9 -7z m915 -242 c-3 -6 -11 -11 -17 -11 -6 0 -6 6 2 15 14 17
26 13 15 -4z m-26 -27 c5 4 12 2 16 -4 4 -6 -5 -10 -19 -10 -14 0 -26 2 -26 4
0 2 -3 13 -6 23 -5 17 -5 17 10 -1 8 -10 19 -15 25 -12z m248 -96 c-3 -8 -6
-5 -6 6 -1 11 2 17 5 13 3 -3 4 -12 1 -19z m-10 -85 c-2 -16 -4 -5 -4 22 0 28
2 40 4 28 2 -13 2 -35 0 -50z m0 -75 c-3 -7 -5 -2 -5 12 0 14 2 19 5 13 2 -7
2 -19 0 -25z m-1062 -18 c3 -5 1 -10 -4 -10 -6 0 -11 5 -11 10 0 6 2 10 4 10
3 0 8 -4 11 -10z m1142 -102 c-2 -13 -4 -5 -4 17 -1 22 1 32 4 23 2 -10 2 -28
0 -40z m-1177 -118 c0 -5 -5 -10 -11 -10 -5 0 -7 5 -4 10 3 6 8 10 11 10 2 0
4 -4 4 -10z m-94 -85 c20 -48 17 -64 -6 -36 -18 21 -28 71 -14 71 3 0 12 -16
20 -35z m188 9 c3 -8 2 -12 -4 -9 -6 3 -10 10 -10 16 0 14 7 11 14 -7z m-106
-50 c-4 -3 -12 5 -18 18 -12 22 -12 22 6 6 10 -10 15 -20 12 -24z m44 -41 c26
-25 37 -53 21 -53 -12 0 -40 20 -29 20 5 0 2 8 -6 18 -40 46 -30 57 14 15z
m-207 -13 c16 -18 16 -20 2 -20 -19 0 -20 -2 -11 -24 3 -9 11 -13 18 -9 6 4 5
-1 -2 -10 -17 -21 -6 -39 21 -36 12 1 30 -2 40 -6 10 -4 21 -5 24 -1 10 10 32
-14 27 -29 -4 -10 -14 -9 -45 8 -21 11 -41 18 -44 15 -8 -7 6 -39 14 -34 4 3
7 -3 7 -13 0 -16 -3 -16 -36 3 -19 11 -36 24 -38 28 -2 4 -10 8 -18 8 -19 0
-18 19 2 27 12 5 15 16 10 59 -5 58 1 65 29 34z m616 -27 c-12 -20 -14 -14 -5
12 4 9 9 14 11 11 3 -2 0 -13 -6 -23z m858 -18 c0 -5 -6 -1 -14 9 -8 11 -15
24 -15 30 0 5 7 1 15 -10 8 -10 14 -23 14 -29z m-79 0 c0 -5 -5 -3 -10 5 -5 8
-10 20 -10 25 0 6 5 3 10 -5 5 -8 10 -19 10 -25z m-1317 -29 c4 -10 1 -13 -9
-9 -7 3 -14 9 -14 14 0 14 17 10 23 -5z m142 -85 c22 -24 31 -39 20 -33 -20
10 -78 70 -106 107 -22 31 38 -21 86 -74z m184 -15 c-3 -3 -11 5 -18 17 -13
21 -12 21 5 5 10 -10 16 -20 13 -22z m-357 -27 c17 -17 16 -17 -5 -15 -30 3
-47 14 -47 31 0 18 28 9 52 -16z m112 5 c7 -19 2 -18 -19 6 -16 17 -16 20 -3
15 9 -4 19 -13 22 -21z m267 -11 c13 -16 12 -17 -3 -4 -10 7 -18 15 -18 17 0
8 8 3 21 -13z m-383 -82 c3 -8 -1 -12 -9 -9 -7 2 -15 10 -17 17 -3 8 1 12 9 9
7 -2 15 -10 17 -17z m-119 -5 c9 -8 30 -22 46 -30 18 -10 23 -16 13 -16 -9 0
-20 5 -23 10 -3 6 -11 10 -16 10 -6 0 -7 -4 -4 -10 3 -5 1 -10 -5 -10 -7 0
-10 -7 -6 -15 3 -9 0 -15 -10 -15 -18 0 -9 -50 13 -65 42 -28 47 -34 41 -41
-4 -4 -14 -1 -23 6 -23 19 -19 -6 5 -30 25 -25 25 -30 3 -23 -10 3 -29 19 -43
36 -14 17 -18 27 -10 22 13 -8 13 -6 1 8 -8 10 -11 27 -7 42 4 14 2 25 -4 25
-5 0 -9 3 -9 8 3 20 -2 32 -16 32 -8 0 -15 5 -15 11 0 7 9 5 24 -4 20 -13 26
-14 35 -3 7 9 7 16 -1 24 -7 7 -8 12 -4 12 5 0 3 7 -4 15 -16 19 -2 20 19 1z
m89 -6 c7 -11 9 -20 4 -20 -4 0 -13 9 -20 20 -7 11 -9 20 -4 20 4 0 13 -9 20
-20z m2482 0 c0 -5 -2 -10 -4 -10 -3 0 -8 5 -11 10 -3 6 -1 10 4 10 6 0 11 -4
11 -10z m-2429 -37 c13 -16 12 -17 -3 -4 -10 7 -18 15 -18 17 0 8 8 3 21 -13z
m-50 -40 c13 -16 12 -17 -3 -4 -17 13 -22 21 -14 21 2 0 10 -8 17 -17z m40
-30 c13 -16 12 -17 -3 -4 -17 13 -22 21 -14 21 2 0 10 -8 17 -17z m-30 -20
c13 -17 13 -17 -6 -3 -11 8 -22 16 -24 17 -2 2 0 3 6 3 6 0 17 -8 24 -17z m45
-23 c8 0 14 -4 14 -9 0 -5 -9 -7 -20 -4 -11 3 -20 13 -19 22 0 10 2 11 6 4 2
-7 11 -13 19 -13z m-66 -30 c0 -5 -5 -10 -11 -10 -5 0 -7 5 -4 10 3 6 8 10 11
10 2 0 4 -4 4 -10z m103 -28 c23 -21 22 -41 -3 -35 -11 3 -17 10 -14 15 3 5
-2 19 -13 30 -20 23 -2 17 30 -10z m-1813 -211 c0 -5 -7 -17 -16 -25 -8 -9
-12 -21 -8 -28 5 -8 2 -9 -10 -5 -13 5 -17 3 -13 -6 5 -12 -2 -13 -44 -8 -4 1
-9 12 -12 27 -4 21 0 26 24 31 16 3 32 10 35 14 7 12 44 11 44 0z m1730 -16
c33 -35 21 -38 -14 -3 -16 15 -25 28 -19 28 5 0 20 -11 33 -25z m2894 0 c-4
-8 -8 -15 -10 -15 -2 0 -4 7 -4 15 0 8 4 15 10 15 5 0 7 -7 4 -15z m-4794
-256 c10 -23 15 -27 22 -17 8 10 9 10 6 -1 -6 -20 -28 -26 -28 -8 0 8 -7 20
-15 27 -17 14 -20 30 -6 30 5 0 14 -14 21 -31z m1870 -15 c0 -4 -9 1 -20 11
-11 10 -20 23 -20 28 0 6 9 1 20 -11 11 -12 20 -24 20 -28z m-54 -21 c-7 -7
-26 7 -26 19 0 6 6 6 15 -2 9 -7 13 -15 11 -17z m-1316 -35 c0 -5 -4 -8 -10
-8 -5 0 -10 10 -10 23 0 18 2 19 10 7 5 -8 10 -18 10 -22z m1240 11 c0 -6 -4
-7 -10 -4 -5 3 -10 11 -10 16 0 6 5 7 10 4 6 -3 10 -11 10 -16z m-1136 -105
c8 -24 13 -44 11 -44 -4 0 -33 55 -46 89 -8 20 -7 22 5 12 8 -7 21 -32 30 -57z
m-127 41 c0 -8 -4 -15 -9 -15 -4 0 -8 7 -8 15 0 8 4 15 8 15 5 0 9 -7 9 -15z
m273 -77 c8 -26 7 -28 -6 -17 -20 17 -36 58 -28 71 8 12 22 -10 34 -54z m3805
12 c3 -5 2 -10 -4 -10 -5 0 -13 5 -16 10 -3 6 -2 10 4 10 5 0 13 -4 16 -10z
m-2895 -43 c0 -5 -4 -5 -10 -2 -5 3 -10 14 -10 23 0 15 2 15 10 2 5 -8 10 -19
10 -23z m420 -67 c0 -5 -2 -10 -4 -10 -3 0 -8 5 -11 10 -3 6 -1 10 4 10 6 0
11 -4 11 -10z m-419 -61 c16 -17 29 -36 29 -43 -1 -6 -14 5 -30 24 -17 19 -30
29 -30 22 0 -7 -4 -10 -10 -7 -13 8 -13 35 1 35 6 0 24 -14 40 -31z m26 16 c0
-8 -4 -12 -9 -9 -5 3 -6 10 -3 15 9 13 12 11 12 -6z m69 -22 c-7 -7 -26 7 -26
19 0 6 6 6 15 -2 9 -7 13 -15 11 -17z m2771 -38 c-4 -8 -16 -15 -28 -15 -21 0
-21 0 2 19 26 21 35 20 26 -4z m-76 -68 c-10 -9 -11 -8 -5 6 3 10 9 15 12 12
3 -3 0 -11 -7 -18z m-36 -69 c-7 -23 -13 -53 -14 -74 -1 -5 -7 -19 -15 -29
-13 -19 -15 -18 -32 18 -17 36 -17 37 2 52 10 8 24 15 30 15 7 0 14 9 17 20 3
11 8 20 12 20 4 0 4 -10 0 -22z m-100 -128 c16 -36 17 -42 3 -58 -9 -9 -23
-34 -33 -54 -9 -21 -23 -38 -31 -38 -7 0 -19 -8 -26 -18 -7 -10 -25 -27 -40
-36 -16 -10 -28 -27 -28 -37 0 -12 -5 -16 -14 -13 -19 7 -14 31 9 47 12 9 15
19 10 28 -5 8 -5 11 0 7 4 -4 19 10 32 30 14 20 32 41 39 45 8 5 12 12 9 17
-3 5 3 11 12 14 10 3 19 16 19 28 3 52 9 86 15 83 3 -2 14 -22 24 -45z m255
40 c0 -5 -4 -10 -10 -10 -5 0 -10 5 -10 10 0 6 5 10 10 10 6 0 10 -4 10 -10z
m-3061 -30 c11 -24 11 -24 -3 -6 -9 11 -16 24 -16 30 0 12 5 7 19 -24z m-103
-7 c7 -10 14 -26 14 -36 0 -15 -5 -13 -24 10 -13 15 -22 31 -19 35 7 12 15 10
29 -9z m64 2 c7 -9 8 -15 2 -15 -5 0 -12 7 -16 15 -3 8 -4 15 -2 15 2 0 9 -7
16 -15z m105 5 c3 -5 1 -10 -4 -10 -6 0 -11 5 -11 10 0 6 2 10 4 10 3 0 8 -4
11 -10z m-335 -10 c0 -5 -5 -10 -11 -10 -5 0 -7 5 -4 10 3 6 8 10 11 10 2 0 4
-4 4 -10z m3190 0 c0 -5 -5 -10 -11 -10 -5 0 -7 5 -4 10 3 6 8 10 11 10 2 0 4
-4 4 -10z m150 0 c0 -5 -2 -10 -4 -10 -3 0 -8 5 -11 10 -3 6 -1 10 4 10 6 0
11 -4 11 -10z m-3255 -20 c8 -13 -5 -13 -25 0 -13 8 -13 10 2 10 9 0 20 -4 23
-10z m375 0 c8 -5 11 -10 5 -10 -5 0 -17 5 -25 10 -8 5 -10 10 -5 10 6 0 17
-5 25 -10z m2728 -26 c0 -35 17 -51 36 -35 12 10 15 9 15 -6 0 -10 1 -33 1
-52 1 -18 5 -44 10 -57 19 -49 0 -21 -45 67 -37 72 -44 93 -33 100 7 5 14 9
14 9 1 0 2 -12 2 -26z m-70 -101 c-12 -12 -25 -20 -29 -17 -5 3 -9 -3 -9 -13
0 -12 -8 -19 -20 -20 -18 -2 -19 0 -5 13 8 9 13 19 10 24 -3 4 5 29 16 56 l22
48 17 -35 c18 -33 18 -35 -2 -56z m212 83 c0 -3 -4 -8 -10 -11 -5 -3 -10 -1
-10 4 0 6 5 11 10 11 6 0 10 -2 10 -4z m-3256 -35 c-2 -3 -12 3 -22 13 -16 17
-16 18 5 5 12 -7 20 -15 17 -18z m3263 -17 c-9 -17 -17 -23 -21 -15 -4 6 -3
11 2 11 5 0 12 10 15 22 4 12 9 19 12 16 4 -3 0 -19 -8 -34z m-3856 -14 c5 0
9 -7 9 -15 0 -8 -4 -15 -9 -15 -6 0 -6 -12 -1 -30 11 -37 0 -39 -23 -2 l-18
27 6 -43 c6 -47 30 -92 49 -92 12 0 62 -68 54 -75 -2 -3 -22 11 -43 29 -21 19
-42 33 -47 30 -4 -3 -8 0 -8 6 0 7 -19 38 -41 71 -25 34 -39 65 -35 74 3 8 9
15 13 14 16 -2 53 14 53 23 0 6 7 7 16 4 9 -3 20 -6 25 -6z m3721 -115 c42
-84 38 -110 -17 -112 -39 -1 -42 14 -12 60 20 31 23 55 4 35 -7 -7 -16 -21
-20 -32 -5 -11 -14 -17 -25 -14 -11 3 -31 -7 -51 -28 -19 -18 -40 -30 -47 -27
-8 3 -14 0 -14 -7 0 -6 -4 -8 -10 -5 -5 3 -10 1 -10 -6 0 -7 -3 -10 -6 -7 -11
12 17 49 34 46 28 -6 92 72 92 111 0 12 7 33 16 46 11 17 12 25 5 25 -7 0 -9
5 -6 11 9 13 20 -4 67 -96z m-2502 53 c0 -13 -5 -9 -31 19 l-24 26 27 -19 c15
-10 28 -22 28 -26z m2586 -75 c-11 -11 -19 6 -11 24 8 17 8 17 12 0 3 -10 2
-21 -1 -24z m-254 -5 c-7 -7 -12 -8 -12 -2 0 14 12 26 19 19 2 -3 -1 -11 -7
-17z m-161 -81 c-10 -9 -11 -8 -5 6 3 10 9 15 12 12 3 -3 0 -11 -7 -18z m382
-37 c-3 -14 -14 -33 -24 -42 -22 -22 -36 -24 -19 -3 6 8 9 19 5 25 -3 5 1 13
10 16 13 5 14 9 4 15 -10 6 -10 11 1 24 18 21 32 0 23 -35z m-98 10 c3 -5 1
-10 -4 -10 -6 0 -11 5 -11 10 0 6 2 10 4 10 3 0 8 -4 11 -10z m-2842 -36 c-3
-8 -9 -14 -13 -14 -11 0 -21 30 -14 41 9 15 34 -10 27 -27z m2837 12 c0 -3 -4
-8 -10 -11 -5 -3 -10 -1 -10 4 0 6 5 11 10 11 6 0 10 -2 10 -4z m-202 -22 c-9
-10 -21 -13 -29 -8 -9 5 -8 9 7 15 31 12 39 10 22 -7z m172 1 c0 -14 -38 -74
-44 -68 -11 11 -6 36 11 55 15 17 33 24 33 13z m-647 -20 c-3 -9 -8 -14 -10
-11 -3 3 -2 9 2 15 9 16 15 13 8 -4z m669 -57 c-22 -22 -29 -2 -14 37 l17 40
3 -34 c2 -18 -1 -38 -6 -43z m-2852 26 c0 -8 -4 -12 -10 -9 -5 3 -10 10 -10
16 0 5 5 9 10 9 6 0 10 -7 10 -16z m2615 -21 c0 -19 -7 -30 -20 -35 -32 -10
-65 -9 -65 3 0 5 4 8 10 4 17 -11 60 7 60 24 0 14 8 31 15 31 0 0 1 -12 0 -27z
m264 -14 c-32 -27 -45 -23 -18 5 13 14 27 22 32 19 4 -2 -2 -13 -14 -24z
m-209 16 c0 -2 -10 -10 -22 -16 -21 -11 -22 -11 -9 4 13 16 31 23 31 12z
m-2658 -39 c10 -19 10 -20 -5 -7 -10 7 -17 10 -17 5 0 -10 -20 17 -20 28 0 14
31 -5 42 -26z m143 23 c11 -17 -1 -21 -15 -4 -8 9 -8 15 -2 15 6 0 14 -5 17
-11z m2740 -69 c9 0 13 5 10 10 -3 6 -1 10 4 10 14 0 9 -27 -12 -67 -9 -18
-17 -37 -17 -43 0 -6 -8 -22 -17 -36 -9 -14 -18 -37 -19 -52 -2 -14 -8 -28
-14 -32 -7 -4 -11 -10 -10 -14 3 -12 -12 -70 -25 -101 -8 -16 -15 -39 -17 -49
-2 -12 -17 -24 -40 -32 -53 -18 -150 -86 -182 -128 -15 -21 -36 -36 -47 -36
-12 0 -32 -9 -46 -20 -14 -11 -29 -17 -34 -14 -5 3 -9 -4 -9 -15 0 -11 -10
-26 -22 -32 -19 -9 -21 -9 -10 2 31 33 0 39 -50 9 -23 -13 -38 -16 -48 -9 -13
8 -11 13 13 34 15 13 27 28 27 33 0 14 37 21 48 10 7 -7 19 -1 38 18 15 16 24
23 20 17 -4 -7 -2 -13 3 -13 6 0 11 5 11 11 0 6 7 18 16 27 10 10 12 18 6 20
-15 5 -3 32 14 32 19 0 69 54 89 96 9 19 22 34 30 34 8 0 25 10 36 21 17 17
23 19 30 8 7 -11 13 -10 31 9 12 12 17 22 11 22 -7 0 -10 7 -6 17 5 12 -1 10
-25 -7 -43 -32 -48 -22 -10 24 17 21 34 33 37 28 3 -6 18 -8 34 -5 29 6 28 3
31 113 1 61 3 66 29 78 16 8 31 21 34 30 10 27 27 33 35 12 4 -11 15 -20 23
-20z m-365 20 c0 -5 -5 -10 -11 -10 -5 0 -7 5 -4 10 3 6 8 10 11 10 2 0 4 -4
4 -10z m-2338 -17 c30 -36 30 -47 0 -19 -18 17 -32 31 -32 33 0 9 19 1 32 -14z
m2405 -9 c5 -13 7 -13 15 -2 6 9 8 3 6 -17 -2 -20 -8 -29 -17 -27 -12 3 -12 0
-1 -12 17 -22 37 -20 45 4 3 11 10 20 15 20 5 0 17 3 27 7 15 6 16 4 6 -9 -7
-8 -10 -17 -7 -21 3 -3 1 -14 -5 -26 -18 -33 5 -33 33 0 32 37 41 33 32 -16
-6 -30 -10 -34 -29 -30 -12 3 -35 1 -52 -3 -18 -5 -42 -5 -58 1 -21 7 -32 6
-45 -6 -10 -9 -23 -13 -30 -8 -10 6 -10 11 3 21 27 22 49 80 36 93 -8 8 -11 7
-11 -7 0 -11 -6 -16 -17 -14 -11 2 -17 11 -15 21 2 9 -2 17 -8 17 -5 0 -11 -3
-11 -7 -1 -5 -3 -21 -5 -37 -4 -34 -37 -72 -53 -62 -18 12 -13 41 12 63 12 11
29 30 37 41 9 14 21 20 31 17 10 -3 20 -1 24 5 9 15 35 12 42 -6z m-2777 -58
c0 -5 -7 -3 -15 4 -8 7 -15 20 -15 28 0 13 3 12 15 -4 8 -10 15 -23 15 -28z
m-219 1 c-10 -9 -11 -8 -5 6 3 10 9 15 12 12 3 -3 0 -11 -7 -18z m-315 5 c6
-4 4 -13 -7 -23 -16 -16 -17 -15 -15 7 1 25 5 28 22 16z m427 -6 c11 -8 14
-17 8 -20 -5 -4 -13 0 -18 7 -4 8 -15 17 -23 20 -13 5 -13 5 0 6 8 0 23 -6 33
-13z m-471 -68 c-7 -7 -12 -8 -12 -2 0 14 12 26 19 19 2 -3 -1 -11 -7 -17z
m48 12 c0 -5 -2 -10 -4 -10 -3 0 -8 5 -11 10 -3 6 -1 10 4 10 6 0 11 -4 11
-10z m3200 -55 c-7 -9 -15 -13 -17 -11 -7 7 7 26 19 26 6 0 6 -6 -2 -15z
m-2575 -40 c2 -16 -1 -25 -8 -22 -7 2 -13 18 -14 36 -2 40 18 27 22 -14z
m2645 41 c0 -3 -4 -8 -10 -11 -5 -3 -10 -1 -10 4 0 6 5 11 10 11 6 0 10 -2 10
-4z m-145 -26 c3 -5 2 -10 -4 -10 -5 0 -13 5 -16 10 -3 6 -2 10 4 10 5 0 13
-4 16 -10z m195 -5 c0 -8 -7 -15 -15 -15 -9 0 -12 6 -9 15 4 8 10 15 15 15 5
0 9 -7 9 -15z m-199 -32 c12 -32 4 -41 -41 -48 -29 -5 -31 -4 -12 4 25 12 31
34 5 24 -12 -5 -14 -3 -8 8 27 47 41 50 56 12z m151 -33 c-9 -17 -25 -30 -34
-30 -10 0 -18 -4 -18 -10 0 -5 -7 -10 -15 -10 -9 0 -12 6 -9 15 4 8 12 15 20
15 7 0 23 13 35 30 28 37 44 30 21 -10z m-2912 -1 c0 -11 -4 -18 -10 -14 -5 3
-7 12 -3 20 7 21 13 19 13 -6z m220 -30 c0 -6 -4 -7 -10 -4 -5 3 -10 11 -10
16 0 6 5 7 10 4 6 -3 10 -11 10 -16z m4501 -41 c-21 -35 -44 -84 -51 -110 -15
-57 -34 -64 -25 -10 12 69 37 127 68 155 48 42 50 33 8 -35z m-4833 -13 c-1
-21 -7 -35 -15 -35 -16 0 -17 24 -3 51 16 28 21 23 18 -16z m456 -2 c9 -18 14
-33 12 -33 -6 0 -36 55 -36 66 0 11 5 3 24 -33z m2356 12 c-7 -9 -20 -13 -29
-10 -8 3 -12 3 -9 -1 12 -12 -20 -34 -49 -33 l-28 0 28 22 c26 20 88 46 96 40
2 -1 -2 -10 -9 -18z m-2695 5 c3 -5 -1 -10 -9 -10 -9 0 -16 5 -16 10 0 6 4 10
9 10 6 0 13 -4 16 -10z m25 -32 c0 -4 -4 -8 -9 -8 -6 0 -12 4 -15 8 -3 5 1 9
9 9 8 0 15 -4 15 -9z m2540 -43 c-7 -8 -17 -15 -23 -15 -6 0 -2 7 9 15 25 19
30 19 14 0z m-2512 -45 c1 -41 -15 -29 -20 14 -3 26 -1 32 8 26 6 -6 11 -24
12 -40z m2724 18 c-6 -6 -15 -8 -19 -4 -4 4 -1 11 7 16 19 12 27 3 12 -12z
m-595 -34 c-3 -3 -12 -4 -19 -1 -8 3 -5 6 6 6 11 1 17 -2 13 -5z m91 -6 c-5
-15 -78 -24 -78 -9 0 10 22 18 58 20 15 1 22 -4 20 -11z m179 -70 c-2 -7 -14
-13 -26 -12 -11 0 -21 -3 -21 -8 0 -4 -12 -8 -27 -8 -26 1 -26 2 12 20 47 22
68 25 62 8z m-134 -58 c12 0 -23 -29 -35 -30 -13 0 -9 35 5 49 10 10 13 9 15
-3 2 -9 8 -16 15 -16z m87 -5 c0 -1 -9 -10 -19 -19 -19 -17 -20 -17 -30 3 -10
18 -8 20 19 19 17 -1 30 -2 30 -3z m205 -45 c3 -6 -4 -14 -17 -19 -29 -11 -35
-6 -18 14 14 17 26 19 35 5z m84 -33 c0 -8 -3 -7 -6 2 -5 11 -7 11 -14 0 -7
-12 -10 -12 -21 0 -8 9 -9 11 -1 7 6 -3 14 -2 18 4 8 13 25 3 24 -13z m1606
-387 c3 -5 -1 -10 -9 -10 -9 0 -16 5 -16 10 0 6 4 10 9 10 6 0 13 -4 16 -10z
m-105 -104 c0 -3 -4 -8 -10 -11 -5 -3 -10 -1 -10 4 0 6 5 11 10 11 6 0 10 -2
10 -4z m-70 -70 c0 -3 -4 -8 -10 -11 -5 -3 -10 -1 -10 4 0 6 5 11 10 11 6 0
10 -2 10 -4z"/>
<path d="M5705 6250 c-3 -5 -2 -10 4 -10 5 0 13 5 16 10 3 6 2 10 -4 10 -5 0
-13 -4 -16 -10z"/>
<path d="M5650 5776 c0 -2 7 -9 15 -16 13 -11 14 -10 9 4 -5 14 -24 23 -24 12z"/>
<path d="M5697 5738 c-7 -26 -3 -32 17 -25 9 4 12 14 9 26 -7 27 -19 27 -26
-1z"/>
<path d="M4860 5315 c0 -8 5 -15 10 -15 6 0 10 7 10 15 0 8 -4 15 -10 15 -5 0
-10 -7 -10 -15z"/>
<path d="M4823 5030 c-1 -11 2 -20 8 -20 5 0 9 9 9 20 0 11 -4 20 -8 20 -4 0
-8 -9 -9 -20z"/>
<path d="M4944 4696 c-8 -22 3 -33 18 -18 9 9 9 15 0 24 -9 9 -13 7 -18 -6z"/>
<path d="M5057 4543 c-12 -11 -8 -23 8 -23 8 0 15 7 15 15 0 16 -12 20 -23 8z"/>
<path d="M5857 4499 c7 -7 15 -10 18 -7 3 3 -2 9 -12 12 -14 6 -15 5 -6 -5z"/>
<path d="M5017 4383 c-24 -6 -16 -27 11 -31 12 -2 22 -11 22 -19 0 -9 2 -14 5
-11 7 7 -6 68 -14 67 -3 -1 -14 -3 -24 -6z"/>
<path d="M5544 4319 c-4 -8 -3 -9 4 -5 7 4 12 3 12 -3 0 -5 -4 -13 -10 -16
-16 -10 -12 -20 16 -49 29 -29 33 -30 53 -17 12 8 12 12 2 25 -8 9 -11 28 -8
44 5 26 3 28 -28 30 -18 2 -37 -3 -41 -9z"/>
<path d="M5436 4183 c-4 -9 -4 -14 0 -10 4 4 14 1 23 -6 14 -11 15 -10 1 8 -8
11 -15 21 -16 23 -1 2 -5 -5 -8 -15z"/>
<path d="M5490 4157 c0 -2 13 -16 30 -30 30 -27 49 -23 27 6 -11 14 -57 34
-57 24z"/>
<path d="M6550 1659 c0 -11 4 -18 10 -14 5 3 7 12 3 20 -7 21 -13 19 -13 -6z"/>
<path d="M6435 979 c-4 -6 -5 -13 -2 -16 7 -7 27 6 27 18 0 12 -17 12 -25 -2z"/>
<path d="M3155 7750 c-3 -5 1 -10 9 -10 9 0 16 5 16 10 0 6 -4 10 -9 10 -6 0
-13 -4 -16 -10z"/>
<path d="M3198 7513 c6 -2 18 -2 25 0 6 3 1 5 -13 5 -14 0 -19 -2 -12 -5z"/>
<path d="M3301 7384 c-7 -8 -11 -17 -9 -20 3 -2 13 5 23 16 10 11 14 20 9 20
-5 -1 -15 -8 -23 -16z"/>
<path d="M3352 7388 c-14 -14 -16 -38 -3 -38 5 0 11 11 13 25 6 29 6 29 -10
13z"/>
<path d="M3760 6680 c0 -5 5 -10 11 -10 5 0 7 5 4 10 -3 6 -8 10 -11 10 -2 0
-4 -4 -4 -10z"/>
<path d="M3745 6640 c-3 -5 1 -10 9 -10 9 0 16 5 16 10 0 6 -4 10 -9 10 -6 0
-13 -4 -16 -10z"/>
<path d="M3850 6544 c0 -8 5 -12 10 -9 6 4 8 11 5 16 -9 14 -15 11 -15 -7z"/>
<path d="M3902 6514 c3 -17 21 -21 26 -6 1 5 -4 12 -13 16 -11 4 -15 1 -13
-10z"/>
<path d="M3825 6470 c-3 -5 1 -10 10 -10 9 0 13 5 10 10 -3 6 -8 10 -10 10 -2
0 -7 -4 -10 -10z"/>
<path d="M3915 6470 c-3 -5 -1 -10 4 -10 6 0 11 5 11 10 0 6 -2 10 -4 10 -3 0
-8 -4 -11 -10z"/>
<path d="M3920 6430 c0 -5 5 -10 10 -10 6 0 10 5 10 10 0 6 -4 10 -10 10 -5 0
-10 -4 -10 -10z"/>
<path d="M3996 6382 c-4 -7 -2 -12 3 -12 19 0 12 -20 -16 -47 -22 -20 -23 -24
-8 -18 11 4 25 8 32 8 19 1 22 20 9 52 -8 19 -15 25 -20 17z"/>
<path d="M3945 6200 c3 -5 8 -10 11 -10 2 0 4 5 4 10 0 6 -5 10 -11 10 -5 0
-7 -4 -4 -10z"/>
<path d="M3990 6177 c-8 -7 -16 -20 -18 -29 -4 -24 25 -12 34 14 8 25 3 29
-16 15z"/>
<path d="M3980 6114 c0 -13 18 -39 24 -34 2 3 -2 14 -10 24 -8 11 -14 16 -14
10z"/>
<path d="M3861 6060 c14 -31 19 -36 19 -24 0 6 -7 19 -16 30 -14 18 -14 18 -3
-6z"/>
<path d="M4011 6028 c-1 -16 4 -28 9 -28 12 0 12 8 0 35 -8 18 -9 17 -9 -7z"/>
<path d="M3980 6005 c0 -8 4 -15 10 -15 5 0 7 7 4 15 -4 8 -8 15 -10 15 -2 0
-4 -7 -4 -15z"/>
<path d="M3997 5873 c-15 -32 -15 -35 -1 -18 24 30 36 55 26 55 -4 0 -16 -17
-25 -37z"/>
<path d="M4022 5755 c0 -16 2 -22 5 -12 2 9 2 23 0 30 -3 6 -5 -1 -5 -18z"/>
<path d="M4005 5540 c0 -55 3 -100 7 -100 4 0 5 6 2 14 -3 7 1 20 8 27 8 8 19
33 26 57 12 38 32 58 32 31 0 -5 4 -7 10 -4 6 4 2 15 -10 27 -11 12 -20 28
-20 35 0 8 -5 11 -10 8 -6 -4 -8 -10 -5 -15 3 -4 1 -19 -4 -32 -8 -21 -9 -20
-16 15 -12 64 -20 41 -20 -63z"/>
<path d="M4006 5375 c4 -8 8 -15 10 -15 2 0 4 7 4 15 0 8 -4 15 -10 15 -5 0
-7 -7 -4 -15z"/>
<path d="M4050 5315 c0 -19 4 -35 8 -35 4 0 6 16 4 35 -2 19 -6 35 -8 35 -2 0
-4 -16 -4 -35z"/>
<path d="M4137 5319 c-10 -11 -16 -23 -14 -25 6 -6 37 25 37 37 0 13 -3 11
-23 -12z"/>
<path d="M4080 5266 c0 -8 5 -18 10 -21 6 -3 10 1 10 9 0 8 -4 18 -10 21 -5 3
-10 -1 -10 -9z"/>
<path d="M4146 5237 c-8 -32 -7 -57 3 -57 11 0 20 69 10 75 -4 3 -9 -5 -13
-18z"/>
<path d="M2110 5190 c-12 -8 -12 -10 3 -16 9 -3 17 -12 17 -19 0 -19 18 -23
57 -11 37 12 46 30 10 21 -28 -7 -81 11 -72 25 8 12 4 12 -15 0z"/>
<path d="M1957 5162 c-15 -2 -25 -8 -21 -13 3 -6 -4 -7 -20 -3 -19 4 -28 2
-32 -10 -7 -19 -50 -22 -57 -3 -3 6 -6 2 -7 -10 -2 -13 -4 -27 -5 -33 -1 -5
-3 -17 -4 -26 -1 -12 -7 -15 -25 -10 -15 4 -28 0 -36 -9 -10 -12 -16 -13 -26
-4 -11 9 -14 7 -14 -10 0 -11 -6 -21 -12 -21 -10 0 -9 -3 1 -9 11 -7 9 -10 -8
-16 -14 -4 -20 -12 -17 -21 3 -8 1 -26 -5 -40 -16 -43 -2 -91 29 -100 21 -6
23 -8 9 -11 -28 -7 -15 -26 39 -54 62 -34 112 -43 149 -29 21 8 31 8 33 1 2
-6 12 -11 21 -11 25 0 33 -11 19 -27 -15 -18 5 -33 44 -33 36 0 58 -10 58 -26
0 -27 33 -33 62 -12 16 11 34 18 41 15 7 -3 0 -9 -15 -15 -14 -6 -29 -15 -32
-20 -6 -11 54 -10 72 2 24 15 27 -5 3 -23 l-23 -18 31 5 c19 2 31 0 31 -7 0
-6 5 -11 11 -11 8 0 10 15 7 44 -5 40 -2 48 23 72 29 28 38 20 19 -17 -15 -27
2 -24 34 6 37 34 42 31 17 -10 -11 -19 -17 -35 -13 -35 14 0 33 17 37 31 13
59 16 61 59 53 53 -8 52 -8 59 -46 3 -18 10 -46 16 -61 9 -24 14 -26 30 -17
11 5 36 10 55 10 25 0 36 4 36 15 0 8 8 15 18 15 9 0 26 7 36 15 18 14 16 16
-35 38 -50 22 -122 43 -176 50 -12 2 -26 6 -29 10 -4 4 -26 7 -49 7 -22 0 -45
4 -50 9 -11 10 -127 34 -166 34 -24 0 -25 1 -10 16 9 9 23 17 31 18 22 3 109
9 153 11 20 1 37 6 37 11 0 14 -89 27 -185 26 -76 -1 -97 -4 -127 -23 -37 -23
-41 -46 -15 -79 15 -20 -22 -29 -52 -12 -14 8 -32 28 -40 44 -8 17 -23 47 -33
67 -30 60 -10 158 32 158 15 0 20 7 20 25 0 18 7 28 25 35 14 5 29 9 33 9 17
-3 72 14 82 26 8 9 1 19 -24 38 -34 26 -64 30 -149 19z m69 -39 c-6 -6 -46 20
-46 30 0 4 11 0 25 -9 14 -9 24 -19 21 -21z m520 -451 c23 -15 25 -48 4 -67
-25 -22 -30 -18 -37 34 -6 41 5 52 33 33z m44 -12 c0 -5 -2 -10 -4 -10 -3 0
-8 5 -11 10 -3 6 -1 10 4 10 6 0 11 -4 11 -10z"/>
<path d="M4092 5158 c-7 -7 -12 -19 -12 -27 0 -9 6 -7 20 9 11 13 20 25 20 27
0 7 -17 2 -28 -9z"/>
<path d="M2238 5153 c6 -2 18 -2 25 0 6 3 1 5 -13 5 -14 0 -19 -2 -12 -5z"/>
<path d="M2340 5139 c0 -5 5 -7 10 -4 6 3 10 8 10 11 0 2 -4 4 -10 4 -5 0 -10
-5 -10 -11z"/>
<path d="M2233 5113 c9 -2 25 -2 35 0 9 3 1 5 -18 5 -19 0 -27 -2 -17 -5z"/>
<path d="M2718 5043 c6 -2 18 -2 25 0 6 3 1 5 -13 5 -14 0 -19 -2 -12 -5z"/>
<path d="M2766 5028 c3 -4 16 -8 30 -8 14 0 22 4 19 10 -3 5 -17 9 -30 8 -13
-1 -21 -6 -19 -10z"/>
<path d="M2740 4991 c14 -4 39 -11 55 -14 l30 -6 -30 14 c-16 8 -41 14 -55 14
l-25 -1 25 -7z"/>
<path d="M1565 4803 c9 -50 34 -76 71 -71 l29 3 -33 33 c-18 19 -37 42 -42 53
-18 33 -33 22 -25 -18z"/>
<path d="M2458 4803 c7 -3 16 -2 19 1 4 3 -2 6 -13 5 -11 0 -14 -3 -6 -6z"/>
<path d="M2565 4770 c3 -5 11 -10 16 -10 6 0 7 5 4 10 -3 6 -11 10 -16 10 -6
0 -7 -4 -4 -10z"/>
<path d="M1655 4700 c-9 -15 4 -30 26 -30 17 0 18 3 7 20 -14 22 -24 25 -33
10z"/>
<path d="M4110 4616 c0 -9 5 -16 10 -16 6 0 10 4 10 9 0 6 -4 13 -10 16 -5 3
-10 -1 -10 -9z"/>
<path d="M2395 4449 c-4 -6 -5 -13 -2 -16 7 -7 27 6 27 18 0 12 -17 12 -25 -2z"/>
<path d="M2295 4395 c-46 -20 -85 -59 -85 -84 0 -6 17 1 37 15 22 15 47 24 60
21 12 -2 22 -1 21 2 -2 10 15 46 25 52 5 4 5 9 1 12 -5 2 -32 -5 -59 -18z"/>
<path d="M4145 4340 c3 -5 8 -10 11 -10 2 0 4 5 4 10 0 6 -5 10 -11 10 -5 0
-7 -4 -4 -10z"/>
<path d="M4092 3971 c1 -17 5 -28 10 -25 11 7 10 41 -1 49 -5 3 -9 -8 -9 -24z"/>
<path d="M4150 3950 c0 -5 5 -10 11 -10 5 0 7 5 4 10 -3 6 -8 10 -11 10 -2 0
-4 -4 -4 -10z"/>
<path d="M4096 3911 c-4 -5 -2 -12 4 -16 5 -3 7 -17 4 -31 -4 -14 -2 -24 5
-24 13 0 15 66 2 75 -5 3 -12 1 -15 -4z"/>
<path d="M4015 3820 c3 -5 8 -10 11 -10 2 0 4 5 4 10 0 6 -5 10 -11 10 -5 0
-7 -4 -4 -10z"/>
<path d="M3980 3780 c0 -5 5 -10 11 -10 5 0 7 5 4 10 -3 6 -8 10 -11 10 -2 0
-4 -4 -4 -10z"/>
<path d="M3843 3611 c-8 -13 -13 -14 -25 -3 -13 11 -16 8 -21 -15 -6 -30 20
-86 36 -76 4 3 21 -9 36 -26 15 -17 30 -29 32 -26 3 2 18 -7 33 -20 16 -14 39
-25 50 -24 21 0 21 0 1 10 -11 6 -35 41 -53 79 -19 38 -44 80 -56 93 -20 22
-24 23 -33 8z"/>
<path d="M3952 3576 c6 -14 15 -26 20 -26 10 0 -7 36 -22 45 -6 4 -5 -5 2 -19z"/>
<path d="M3940 3540 c0 -5 5 -10 11 -10 5 0 7 5 4 10 -3 6 -8 10 -11 10 -2 0
-4 -4 -4 -10z"/>
<path d="M3836 3485 c4 -8 8 -15 10 -15 2 0 4 7 4 15 0 8 -4 15 -10 15 -5 0
-7 -7 -4 -15z"/>
<path d="M3827 3418 c3 -18 12 -46 20 -63 l14 -30 -8 35 c-3 19 -7 46 -8 59
-1 14 -7 27 -13 29 -8 2 -10 -7 -5 -30z"/>
<path d="M3890 3436 c0 -9 7 -12 21 -9 16 4 17 8 7 14 -19 13 -28 11 -28 -5z"/>
<path d="M1946 3390 c-16 -5 -33 -7 -38 -4 -10 7 -42 -17 -45 -33 -4 -19 14
-16 27 5 10 15 10 15 5 -4 -3 -13 1 -26 10 -34 17 -14 34 -4 69 38 10 13 25
21 32 18 8 -3 14 -1 14 3 0 9 -25 22 -38 20 -4 0 -20 -5 -36 -9z"/>
<path d="M3900 3389 c0 -5 5 -7 10 -4 6 3 10 8 10 11 0 2 -4 4 -10 4 -5 0 -10
-5 -10 -11z"/>
<path d="M3890 3350 c0 -5 7 -7 15 -4 8 4 15 8 15 10 0 2 -7 4 -15 4 -8 0 -15
-4 -15 -10z"/>
<path d="M1983 3343 c-7 -2 -13 -11 -13 -18 0 -7 -9 -15 -20 -18 -13 -3 -18
-10 -14 -21 4 -11 1 -16 -10 -16 -9 0 -16 7 -16 15 0 20 -16 19 -24 -1 -9 -22
-8 -24 9 -18 10 4 15 0 15 -15 0 -24 15 -28 27 -8 4 8 16 16 26 20 9 3 17 16
17 27 0 11 7 23 15 26 8 4 15 12 15 20 0 14 -6 16 -27 7z"/>
<path d="M1862 3318 c-16 -16 -15 -38 2 -38 7 0 16 11 18 25 6 27 -1 32 -20
13z"/>
<path d="M2340 3260 c0 -5 5 -10 10 -10 6 0 10 5 10 10 0 6 -4 10 -10 10 -5 0
-10 -4 -10 -10z"/>
<path d="M3690 3181 c0 -11 3 -27 6 -36 6 -14 8 -13 21 5 12 16 12 24 3 35
-17 21 -30 19 -30 -4z"/>
<path d="M3590 3170 c0 -5 5 -10 11 -10 5 0 7 5 4 10 -3 6 -8 10 -11 10 -2 0
-4 -4 -4 -10z"/>
<path d="M3745 3083 c4 -10 8 -24 8 -31 0 -7 7 -10 14 -8 8 3 11 2 8 -4 -3 -5
4 -14 15 -20 20 -11 21 -10 9 12 -16 31 -65 77 -54 51z"/>
<path d="M3795 3070 c9 -16 18 -30 21 -30 2 0 -2 14 -11 30 -9 17 -18 30 -21
30 -2 0 2 -13 11 -30z"/>
<path d="M3850 3068 c0 -10 4 -18 8 -18 5 0 15 -11 22 -24 7 -14 19 -27 27
-30 17 -7 5 15 -32 59 -19 23 -25 26 -25 13z"/>
<path d="M3753 2982 c8 -9 20 -30 26 -45 7 -17 16 -25 22 -21 8 5 8 9 -1 14
-10 6 -9 9 0 12 9 3 4 13 -14 31 -30 30 -59 38 -33 9z"/>
<path d="M3810 2991 c0 -10 19 -25 25 -20 1 2 -3 10 -11 17 -8 7 -14 8 -14 3z"/>
<path d="M3875 2940 c3 -5 8 -10 11 -10 2 0 4 5 4 10 0 6 -5 10 -11 10 -5 0
-7 -4 -4 -10z"/>
<path d="M3670 2804 c0 -5 7 -18 15 -28 8 -11 15 -16 15 -10 0 5 -7 18 -15 28
-8 11 -15 16 -15 10z"/>
<path d="M3731 2696 c7 -15 15 -23 17 -16 3 7 -3 19 -13 28 -15 16 -16 15 -4
-12z"/>
<path d="M3770 2701 c0 -6 4 -13 10 -16 6 -3 7 1 4 9 -7 18 -14 21 -14 7z"/>
<path d="M3758 2625 c11 -22 52 -62 52 -51 0 4 -14 21 -31 39 -19 20 -27 24
-21 12z"/>
<path d="M3635 2530 c-3 -5 -1 -10 4 -10 6 0 11 5 11 10 0 6 -2 10 -4 10 -3 0
-8 -4 -11 -10z"/>
<path d="M3520 2461 c0 -6 4 -13 10 -16 6 -3 7 1 4 9 -7 18 -14 21 -14 7z"/>
<path d="M3090 2336 c0 -35 12 -52 29 -41 11 6 -5 61 -20 71 -5 3 -9 -11 -9
-30z"/>
<path d="M3490 2261 c0 -24 13 -33 33 -25 14 5 13 8 -1 25 -21 24 -32 24 -32
0z"/>
<path d="M3167 2220 c7 -25 23 -37 23 -17 0 8 -6 20 -14 26 -12 10 -13 8 -9
-9z"/>
<path d="M3491 2200 c0 -26 24 -67 31 -53 3 4 -3 24 -13 43 -17 32 -18 33 -18
10z"/>
<path d="M3204 2173 c3 -17 1 -33 -3 -35 -5 -2 -2 -10 7 -18 14 -13 15 -12 9
3 -3 9 -2 17 3 17 15 0 12 24 -6 46 -15 18 -15 17 -10 -13z"/>
<path d="M3566 2187 c3 -10 9 -15 12 -12 3 3 0 11 -7 18 -10 9 -11 8 -5 -6z"/>
<path d="M3450 2171 c0 -5 5 -13 10 -16 6 -3 10 -2 10 4 0 5 -4 13 -10 16 -5
3 -10 2 -10 -4z"/>
<path d="M3251 2144 c0 -11 3 -14 6 -6 3 7 2 16 -1 19 -3 4 -6 -2 -5 -13z"/>
<path d="M3293 2118 c2 -15 -1 -29 -6 -31 -6 -2 -7 -11 -3 -23 6 -13 10 -15
13 -6 6 17 33 -4 33 -26 0 -8 3 -13 6 -10 8 9 -14 81 -31 103 -16 19 -16 19
-12 -7z"/>
<path d="M2725 2090 c3 -5 8 -10 11 -10 2 0 4 5 4 10 0 6 -5 10 -11 10 -5 0
-7 -4 -4 -10z"/>
<path d="M3215 2090 c-7 -11 14 -54 23 -46 3 4 1 11 -5 17 -6 6 -9 18 -6 25 6
16 -3 19 -12 4z"/>
<path d="M3520 2088 c-1 -21 22 -58 35 -58 12 0 13 3 5 13 -6 6 -17 21 -25 32
-8 11 -15 17 -15 13z"/>
<path d="M3570 2069 c0 -5 5 -7 10 -4 6 3 10 8 10 11 0 2 -4 4 -10 4 -5 0 -10
-5 -10 -11z"/>
<path d="M3346 1996 c3 -9 11 -16 16 -16 13 0 5 23 -10 28 -7 2 -10 -2 -6 -12z"/>
<path d="M2679 1942 c-11 -17 -14 -18 -27 -6 -24 24 -33 4 -12 -26 11 -15 20
-36 20 -46 0 -27 15 -5 30 44 15 46 9 65 -11 34z"/>
<path d="M3310 1935 c0 -8 4 -15 10 -15 5 0 7 7 4 15 -4 8 -8 15 -10 15 -2 0
-4 -7 -4 -15z"/>
<path d="M3380 1846 c0 -9 5 -16 10 -16 6 0 10 4 10 9 0 6 -4 13 -10 16 -5 3
-10 -1 -10 -9z"/>
<path d="M3076 1311 c-4 -7 -5 -15 -2 -18 9 -9 19 4 14 18 -4 11 -6 11 -12 0z"/>
<path d="M3170 1200 c0 -11 5 -20 10 -20 6 0 10 9 10 20 0 11 -4 20 -10 20 -5
0 -10 -9 -10 -20z"/>
</g>
</svg>
